<mxfile host="app.diagrams.net" modified="2022-12-14T02:46:29.503Z" agent="5.0 (Windows NT 10.0; Win64; x64) AppleWebKit/537.36 (KHTML, like Gecko) Chrome/108.0.0.0 Safari/537.36 Edg/108.0.1462.46" etag="ojpHg5USWIUd7i_rCZzt" version="20.6.2" type="github">
  <diagram id="8T_DmFEaWRe2VI1obKvT" name="Page-1">
    <mxGraphModel dx="1422" dy="919" grid="0" gridSize="10" guides="1" tooltips="1" connect="1" arrows="1" fold="1" page="0" pageScale="1" pageWidth="1100" pageHeight="850" background="none" math="0" shadow="0">
      <root>
        <mxCell id="0" />
        <mxCell id="1" parent="0" />
        <mxCell id="WVB9dbx_asBBpIPRNUMO-60" value="" style="rounded=0;whiteSpace=wrap;html=1;fillColor=#ffe6cc;sketch=1;glass=0;shadow=0;strokeColor=#d79b00;" vertex="1" parent="1">
          <mxGeometry x="3330" y="1280" width="850" height="520" as="geometry" />
        </mxCell>
        <mxCell id="ziZAyYgAh9MztOyzgz17-46" value="&lt;p style=&quot;line-height: 19px;&quot;&gt;&lt;br&gt;&lt;/p&gt;" style="rounded=0;whiteSpace=wrap;html=1;fillColor=none;dashed=1;" parent="1" vertex="1">
          <mxGeometry x="3898.06" y="6" width="293.33" height="874" as="geometry" />
        </mxCell>
        <mxCell id="5S2iBS3wVlSxtZ1-8zax-2" value="" style="rounded=0;whiteSpace=wrap;html=1;fillColor=none;dashed=1;" parent="1" vertex="1">
          <mxGeometry x="3311.39" y="6" width="293.33" height="874" as="geometry" />
        </mxCell>
        <mxCell id="-PVYNfKp2_SMiAzgi10n-22" style="edgeStyle=orthogonalEdgeStyle;rounded=0;orthogonalLoop=1;jettySize=auto;html=1;exitX=0.5;exitY=1;exitDx=0;exitDy=0;entryX=0.5;entryY=0;entryDx=0;entryDy=0;" parent="1" source="-PVYNfKp2_SMiAzgi10n-20" target="-PVYNfKp2_SMiAzgi10n-21" edge="1">
          <mxGeometry relative="1" as="geometry" />
        </mxCell>
        <mxCell id="-PVYNfKp2_SMiAzgi10n-20" value="Begin" style="ellipse;whiteSpace=wrap;html=1;" parent="1" vertex="1">
          <mxGeometry x="420" y="173" width="80" height="40" as="geometry" />
        </mxCell>
        <mxCell id="-PVYNfKp2_SMiAzgi10n-24" style="edgeStyle=orthogonalEdgeStyle;rounded=0;orthogonalLoop=1;jettySize=auto;html=1;exitX=1;exitY=0.5;exitDx=0;exitDy=0;" parent="1" source="-PVYNfKp2_SMiAzgi10n-21" edge="1">
          <mxGeometry relative="1" as="geometry">
            <mxPoint x="460" y="221" as="targetPoint" />
            <Array as="points">
              <mxPoint x="528" y="281" />
              <mxPoint x="528" y="221" />
              <mxPoint x="461" y="221" />
            </Array>
          </mxGeometry>
        </mxCell>
        <mxCell id="-PVYNfKp2_SMiAzgi10n-27" value="" style="edgeStyle=orthogonalEdgeStyle;rounded=0;orthogonalLoop=1;jettySize=auto;html=1;" parent="1" source="-PVYNfKp2_SMiAzgi10n-21" target="-PVYNfKp2_SMiAzgi10n-26" edge="1">
          <mxGeometry relative="1" as="geometry" />
        </mxCell>
        <mxCell id="-PVYNfKp2_SMiAzgi10n-21" value="Serial&lt;br&gt;available?" style="rhombus;whiteSpace=wrap;html=1;" parent="1" vertex="1">
          <mxGeometry x="412.5" y="241" width="95" height="80" as="geometry" />
        </mxCell>
        <mxCell id="-PVYNfKp2_SMiAzgi10n-25" value="False" style="text;html=1;align=center;verticalAlign=middle;resizable=0;points=[];autosize=1;strokeColor=none;fillColor=none;" parent="1" vertex="1">
          <mxGeometry x="520" y="251" width="50" height="30" as="geometry" />
        </mxCell>
        <mxCell id="-PVYNfKp2_SMiAzgi10n-29" style="edgeStyle=orthogonalEdgeStyle;rounded=0;orthogonalLoop=1;jettySize=auto;html=1;exitX=0.5;exitY=1;exitDx=0;exitDy=0;entryX=0.5;entryY=0;entryDx=0;entryDy=0;" parent="1" source="-PVYNfKp2_SMiAzgi10n-26" target="-PVYNfKp2_SMiAzgi10n-28" edge="1">
          <mxGeometry relative="1" as="geometry" />
        </mxCell>
        <mxCell id="-PVYNfKp2_SMiAzgi10n-26" value="Deserialize JSON message" style="whiteSpace=wrap;html=1;" parent="1" vertex="1">
          <mxGeometry x="380" y="350" width="160" height="40" as="geometry" />
        </mxCell>
        <mxCell id="-PVYNfKp2_SMiAzgi10n-37" value="" style="edgeStyle=orthogonalEdgeStyle;rounded=0;orthogonalLoop=1;jettySize=auto;html=1;" parent="1" source="-PVYNfKp2_SMiAzgi10n-28" target="-PVYNfKp2_SMiAzgi10n-36" edge="1">
          <mxGeometry relative="1" as="geometry" />
        </mxCell>
        <mxCell id="-PVYNfKp2_SMiAzgi10n-41" style="edgeStyle=orthogonalEdgeStyle;rounded=0;orthogonalLoop=1;jettySize=auto;html=1;entryX=0.5;entryY=0;entryDx=0;entryDy=0;" parent="1" source="-PVYNfKp2_SMiAzgi10n-28" target="-PVYNfKp2_SMiAzgi10n-40" edge="1">
          <mxGeometry relative="1" as="geometry" />
        </mxCell>
        <mxCell id="-PVYNfKp2_SMiAzgi10n-28" value="Error?" style="rhombus;whiteSpace=wrap;html=1;" parent="1" vertex="1">
          <mxGeometry x="410" y="410" width="100" height="80" as="geometry" />
        </mxCell>
        <mxCell id="-PVYNfKp2_SMiAzgi10n-36" value="Return" style="ellipse;whiteSpace=wrap;html=1;" parent="1" vertex="1">
          <mxGeometry x="550" y="430" width="80" height="40" as="geometry" />
        </mxCell>
        <mxCell id="-PVYNfKp2_SMiAzgi10n-38" value="True" style="text;html=1;align=center;verticalAlign=middle;resizable=0;points=[];autosize=1;strokeColor=none;fillColor=none;" parent="1" vertex="1">
          <mxGeometry x="500" y="420" width="50" height="30" as="geometry" />
        </mxCell>
        <mxCell id="-PVYNfKp2_SMiAzgi10n-44" style="edgeStyle=orthogonalEdgeStyle;rounded=0;orthogonalLoop=1;jettySize=auto;html=1;entryX=0.5;entryY=1;entryDx=0;entryDy=0;" parent="1" source="-PVYNfKp2_SMiAzgi10n-40" target="-PVYNfKp2_SMiAzgi10n-36" edge="1">
          <mxGeometry relative="1" as="geometry" />
        </mxCell>
        <mxCell id="-PVYNfKp2_SMiAzgi10n-40" value="Sync Device State" style="whiteSpace=wrap;html=1;" parent="1" vertex="1">
          <mxGeometry x="380" y="516" width="160" height="40" as="geometry" />
        </mxCell>
        <mxCell id="-PVYNfKp2_SMiAzgi10n-42" value="False" style="text;html=1;align=center;verticalAlign=middle;resizable=0;points=[];autosize=1;strokeColor=none;fillColor=none;" parent="1" vertex="1">
          <mxGeometry x="455" y="488" width="50" height="30" as="geometry" />
        </mxCell>
        <mxCell id="-PVYNfKp2_SMiAzgi10n-43" value="True" style="text;html=1;align=center;verticalAlign=middle;resizable=0;points=[];autosize=1;strokeColor=none;fillColor=none;" parent="1" vertex="1">
          <mxGeometry x="450" y="316" width="50" height="30" as="geometry" />
        </mxCell>
        <mxCell id="-PVYNfKp2_SMiAzgi10n-45" style="edgeStyle=orthogonalEdgeStyle;rounded=0;orthogonalLoop=1;jettySize=auto;html=1;exitX=0.5;exitY=1;exitDx=0;exitDy=0;entryX=0.5;entryY=0;entryDx=0;entryDy=0;" parent="1" source="-PVYNfKp2_SMiAzgi10n-46" target="-PVYNfKp2_SMiAzgi10n-49" edge="1">
          <mxGeometry relative="1" as="geometry" />
        </mxCell>
        <mxCell id="-PVYNfKp2_SMiAzgi10n-46" value="Begin" style="ellipse;whiteSpace=wrap;html=1;" parent="1" vertex="1">
          <mxGeometry x="721" y="173" width="80" height="40" as="geometry" />
        </mxCell>
        <mxCell id="-PVYNfKp2_SMiAzgi10n-47" style="edgeStyle=orthogonalEdgeStyle;rounded=0;orthogonalLoop=1;jettySize=auto;html=1;exitX=1;exitY=0.5;exitDx=0;exitDy=0;" parent="1" source="-PVYNfKp2_SMiAzgi10n-49" edge="1">
          <mxGeometry relative="1" as="geometry">
            <mxPoint x="761" y="221" as="targetPoint" />
            <Array as="points">
              <mxPoint x="829" y="281" />
              <mxPoint x="829" y="221" />
              <mxPoint x="762" y="221" />
            </Array>
          </mxGeometry>
        </mxCell>
        <mxCell id="-PVYNfKp2_SMiAzgi10n-48" value="" style="edgeStyle=orthogonalEdgeStyle;rounded=0;orthogonalLoop=1;jettySize=auto;html=1;" parent="1" source="-PVYNfKp2_SMiAzgi10n-49" target="-PVYNfKp2_SMiAzgi10n-52" edge="1">
          <mxGeometry relative="1" as="geometry" />
        </mxCell>
        <mxCell id="-PVYNfKp2_SMiAzgi10n-49" value="Serial&lt;br&gt;available?" style="rhombus;whiteSpace=wrap;html=1;" parent="1" vertex="1">
          <mxGeometry x="713.5" y="241" width="95" height="80" as="geometry" />
        </mxCell>
        <mxCell id="-PVYNfKp2_SMiAzgi10n-50" value="False" style="text;html=1;align=center;verticalAlign=middle;resizable=0;points=[];autosize=1;strokeColor=none;fillColor=none;" parent="1" vertex="1">
          <mxGeometry x="821" y="251" width="50" height="30" as="geometry" />
        </mxCell>
        <mxCell id="-PVYNfKp2_SMiAzgi10n-51" style="edgeStyle=orthogonalEdgeStyle;rounded=0;orthogonalLoop=1;jettySize=auto;html=1;exitX=0.5;exitY=1;exitDx=0;exitDy=0;entryX=0.5;entryY=0;entryDx=0;entryDy=0;" parent="1" source="-PVYNfKp2_SMiAzgi10n-52" target="-PVYNfKp2_SMiAzgi10n-55" edge="1">
          <mxGeometry relative="1" as="geometry" />
        </mxCell>
        <mxCell id="-PVYNfKp2_SMiAzgi10n-52" value="Deserialize JSON message" style="whiteSpace=wrap;html=1;" parent="1" vertex="1">
          <mxGeometry x="681" y="347" width="160" height="40" as="geometry" />
        </mxCell>
        <mxCell id="-PVYNfKp2_SMiAzgi10n-53" value="" style="edgeStyle=orthogonalEdgeStyle;rounded=0;orthogonalLoop=1;jettySize=auto;html=1;" parent="1" source="-PVYNfKp2_SMiAzgi10n-55" target="-PVYNfKp2_SMiAzgi10n-56" edge="1">
          <mxGeometry relative="1" as="geometry" />
        </mxCell>
        <mxCell id="-PVYNfKp2_SMiAzgi10n-54" style="edgeStyle=orthogonalEdgeStyle;rounded=0;orthogonalLoop=1;jettySize=auto;html=1;entryX=0.5;entryY=0;entryDx=0;entryDy=0;" parent="1" source="-PVYNfKp2_SMiAzgi10n-55" target="-PVYNfKp2_SMiAzgi10n-59" edge="1">
          <mxGeometry relative="1" as="geometry" />
        </mxCell>
        <mxCell id="-PVYNfKp2_SMiAzgi10n-55" value="Error?" style="rhombus;whiteSpace=wrap;html=1;" parent="1" vertex="1">
          <mxGeometry x="711" y="406" width="100" height="80" as="geometry" />
        </mxCell>
        <mxCell id="-PVYNfKp2_SMiAzgi10n-56" value="Return" style="ellipse;whiteSpace=wrap;html=1;" parent="1" vertex="1">
          <mxGeometry x="851" y="426" width="80" height="40" as="geometry" />
        </mxCell>
        <mxCell id="-PVYNfKp2_SMiAzgi10n-57" value="True" style="text;html=1;align=center;verticalAlign=middle;resizable=0;points=[];autosize=1;strokeColor=none;fillColor=none;" parent="1" vertex="1">
          <mxGeometry x="801" y="416" width="50" height="30" as="geometry" />
        </mxCell>
        <mxCell id="-PVYNfKp2_SMiAzgi10n-58" style="edgeStyle=orthogonalEdgeStyle;rounded=0;orthogonalLoop=1;jettySize=auto;html=1;entryX=0.5;entryY=1;entryDx=0;entryDy=0;" parent="1" source="-PVYNfKp2_SMiAzgi10n-59" target="-PVYNfKp2_SMiAzgi10n-56" edge="1">
          <mxGeometry relative="1" as="geometry" />
        </mxCell>
        <mxCell id="-PVYNfKp2_SMiAzgi10n-59" value="Close/Open the front door" style="whiteSpace=wrap;html=1;" parent="1" vertex="1">
          <mxGeometry x="681" y="513" width="160" height="40" as="geometry" />
        </mxCell>
        <mxCell id="-PVYNfKp2_SMiAzgi10n-60" value="False" style="text;html=1;align=center;verticalAlign=middle;resizable=0;points=[];autosize=1;strokeColor=none;fillColor=none;" parent="1" vertex="1">
          <mxGeometry x="756" y="478" width="50" height="30" as="geometry" />
        </mxCell>
        <mxCell id="-PVYNfKp2_SMiAzgi10n-61" value="True" style="text;html=1;align=center;verticalAlign=middle;resizable=0;points=[];autosize=1;strokeColor=none;fillColor=none;" parent="1" vertex="1">
          <mxGeometry x="751" y="312" width="50" height="30" as="geometry" />
        </mxCell>
        <mxCell id="-PVYNfKp2_SMiAzgi10n-66" style="edgeStyle=orthogonalEdgeStyle;rounded=0;orthogonalLoop=1;jettySize=auto;html=1;exitX=0.5;exitY=1;exitDx=0;exitDy=0;" parent="1" source="-PVYNfKp2_SMiAzgi10n-62" target="-PVYNfKp2_SMiAzgi10n-64" edge="1">
          <mxGeometry relative="1" as="geometry" />
        </mxCell>
        <mxCell id="-PVYNfKp2_SMiAzgi10n-62" value="Begin" style="ellipse;whiteSpace=wrap;html=1;" parent="1" vertex="1">
          <mxGeometry x="836" y="900" width="80" height="40" as="geometry" />
        </mxCell>
        <mxCell id="-PVYNfKp2_SMiAzgi10n-69" style="edgeStyle=orthogonalEdgeStyle;rounded=0;orthogonalLoop=1;jettySize=auto;html=1;exitX=0.5;exitY=1;exitDx=0;exitDy=0;entryX=0.5;entryY=0;entryDx=0;entryDy=0;fontSize=12;fontColor=#CC0066;" parent="1" source="-PVYNfKp2_SMiAzgi10n-64" target="-PVYNfKp2_SMiAzgi10n-68" edge="1">
          <mxGeometry relative="1" as="geometry" />
        </mxCell>
        <mxCell id="-PVYNfKp2_SMiAzgi10n-64" value="Get pressed key" style="whiteSpace=wrap;html=1;" parent="1" vertex="1">
          <mxGeometry x="816" y="960" width="120" height="40" as="geometry" />
        </mxCell>
        <mxCell id="-PVYNfKp2_SMiAzgi10n-74" style="edgeStyle=orthogonalEdgeStyle;rounded=0;orthogonalLoop=1;jettySize=auto;html=1;fontSize=12;fontColor=#CC0066;" parent="1" source="-PVYNfKp2_SMiAzgi10n-68" edge="1">
          <mxGeometry relative="1" as="geometry">
            <mxPoint x="876" y="1120" as="targetPoint" />
          </mxGeometry>
        </mxCell>
        <mxCell id="-PVYNfKp2_SMiAzgi10n-68" value="Which key&lt;br&gt;is pressed?" style="rhombus;whiteSpace=wrap;html=1;" parent="1" vertex="1">
          <mxGeometry x="826" y="1020" width="100" height="80" as="geometry" />
        </mxCell>
        <mxCell id="-PVYNfKp2_SMiAzgi10n-76" value="" style="endArrow=none;html=1;rounded=0;fontSize=12;fontColor=#CC0066;" parent="1" edge="1">
          <mxGeometry width="50" height="50" relative="1" as="geometry">
            <mxPoint x="645" y="1120" as="sourcePoint" />
            <mxPoint x="1105" y="1120" as="targetPoint" />
          </mxGeometry>
        </mxCell>
        <mxCell id="-PVYNfKp2_SMiAzgi10n-77" value="" style="endArrow=classic;html=1;rounded=0;fontSize=12;fontColor=#CC0066;" parent="1" edge="1">
          <mxGeometry width="50" height="50" relative="1" as="geometry">
            <mxPoint x="975" y="1120" as="sourcePoint" />
            <mxPoint x="975" y="1160" as="targetPoint" />
          </mxGeometry>
        </mxCell>
        <mxCell id="-PVYNfKp2_SMiAzgi10n-78" value="&lt;font style=&quot;font-size: 22px;&quot; color=&quot;#000000&quot;&gt;*&lt;/font&gt;" style="text;html=1;align=center;verticalAlign=middle;resizable=0;points=[];autosize=1;strokeColor=none;fillColor=none;fontSize=12;fontColor=#CC0066;" parent="1" vertex="1">
          <mxGeometry x="970" y="1120" width="30" height="40" as="geometry" />
        </mxCell>
        <mxCell id="-PVYNfKp2_SMiAzgi10n-82" value="" style="edgeStyle=orthogonalEdgeStyle;rounded=0;orthogonalLoop=1;jettySize=auto;html=1;fontSize=22;fontColor=#000000;" parent="1" source="-PVYNfKp2_SMiAzgi10n-80" target="-PVYNfKp2_SMiAzgi10n-81" edge="1">
          <mxGeometry relative="1" as="geometry" />
        </mxCell>
        <mxCell id="-PVYNfKp2_SMiAzgi10n-80" value="Read code typed" style="whiteSpace=wrap;html=1;" parent="1" vertex="1">
          <mxGeometry x="925" y="1160" width="100" height="40" as="geometry" />
        </mxCell>
        <mxCell id="-PVYNfKp2_SMiAzgi10n-84" value="" style="edgeStyle=orthogonalEdgeStyle;rounded=0;orthogonalLoop=1;jettySize=auto;html=1;fontSize=22;fontColor=#000000;" parent="1" source="-PVYNfKp2_SMiAzgi10n-81" target="-PVYNfKp2_SMiAzgi10n-83" edge="1">
          <mxGeometry relative="1" as="geometry" />
        </mxCell>
        <mxCell id="-PVYNfKp2_SMiAzgi10n-108" style="edgeStyle=orthogonalEdgeStyle;rounded=0;orthogonalLoop=1;jettySize=auto;html=1;entryX=0.5;entryY=0;entryDx=0;entryDy=0;fontSize=13;fontColor=#000000;" parent="1" source="-PVYNfKp2_SMiAzgi10n-81" target="-PVYNfKp2_SMiAzgi10n-101" edge="1">
          <mxGeometry relative="1" as="geometry" />
        </mxCell>
        <mxCell id="-PVYNfKp2_SMiAzgi10n-81" value="Match&lt;br&gt;password?" style="rhombus;whiteSpace=wrap;html=1;" parent="1" vertex="1">
          <mxGeometry x="925" y="1220" width="100" height="80" as="geometry" />
        </mxCell>
        <mxCell id="-PVYNfKp2_SMiAzgi10n-128" style="edgeStyle=orthogonalEdgeStyle;rounded=0;orthogonalLoop=1;jettySize=auto;html=1;fontSize=13;fontColor=#000000;" parent="1" source="-PVYNfKp2_SMiAzgi10n-83" edge="1">
          <mxGeometry relative="1" as="geometry">
            <mxPoint x="975" y="1680" as="targetPoint" />
          </mxGeometry>
        </mxCell>
        <mxCell id="-PVYNfKp2_SMiAzgi10n-83" value="Open the door" style="whiteSpace=wrap;html=1;" parent="1" vertex="1">
          <mxGeometry x="925" y="1330" width="100" height="40" as="geometry" />
        </mxCell>
        <mxCell id="-PVYNfKp2_SMiAzgi10n-85" value="&lt;font style=&quot;font-size: 12px;&quot;&gt;True&lt;/font&gt;" style="text;html=1;align=center;verticalAlign=middle;resizable=0;points=[];autosize=1;strokeColor=none;fillColor=none;fontSize=22;fontColor=#000000;" parent="1" vertex="1">
          <mxGeometry x="970" y="1290" width="50" height="40" as="geometry" />
        </mxCell>
        <mxCell id="-PVYNfKp2_SMiAzgi10n-86" value="&lt;font style=&quot;font-size: 13px;&quot; color=&quot;#000000&quot;&gt;#&lt;/font&gt;" style="text;html=1;align=center;verticalAlign=middle;resizable=0;points=[];autosize=1;strokeColor=none;fillColor=none;fontSize=12;fontColor=#CC0066;" parent="1" vertex="1">
          <mxGeometry x="776" y="1125" width="30" height="30" as="geometry" />
        </mxCell>
        <mxCell id="-PVYNfKp2_SMiAzgi10n-87" value="" style="edgeStyle=orthogonalEdgeStyle;rounded=0;orthogonalLoop=1;jettySize=auto;html=1;fontSize=22;fontColor=#000000;" parent="1" edge="1">
          <mxGeometry relative="1" as="geometry">
            <mxPoint x="776" y="1120" as="sourcePoint" />
            <mxPoint x="776" y="1160" as="targetPoint" />
          </mxGeometry>
        </mxCell>
        <mxCell id="-PVYNfKp2_SMiAzgi10n-90" value="" style="edgeStyle=orthogonalEdgeStyle;rounded=0;orthogonalLoop=1;jettySize=auto;html=1;fontSize=13;fontColor=#000000;" parent="1" source="-PVYNfKp2_SMiAzgi10n-88" target="-PVYNfKp2_SMiAzgi10n-89" edge="1">
          <mxGeometry relative="1" as="geometry" />
        </mxCell>
        <mxCell id="-PVYNfKp2_SMiAzgi10n-88" value="Read code typed" style="whiteSpace=wrap;html=1;" parent="1" vertex="1">
          <mxGeometry x="725" y="1160" width="100" height="40" as="geometry" />
        </mxCell>
        <mxCell id="-PVYNfKp2_SMiAzgi10n-92" value="" style="edgeStyle=orthogonalEdgeStyle;rounded=0;orthogonalLoop=1;jettySize=auto;html=1;fontSize=13;fontColor=#000000;" parent="1" source="-PVYNfKp2_SMiAzgi10n-89" target="-PVYNfKp2_SMiAzgi10n-91" edge="1">
          <mxGeometry relative="1" as="geometry" />
        </mxCell>
        <mxCell id="-PVYNfKp2_SMiAzgi10n-105" style="edgeStyle=orthogonalEdgeStyle;rounded=0;orthogonalLoop=1;jettySize=auto;html=1;fontSize=13;fontColor=#000000;" parent="1" source="-PVYNfKp2_SMiAzgi10n-89" target="-PVYNfKp2_SMiAzgi10n-101" edge="1">
          <mxGeometry relative="1" as="geometry" />
        </mxCell>
        <mxCell id="-PVYNfKp2_SMiAzgi10n-89" value="Match&lt;br&gt;password?" style="rhombus;whiteSpace=wrap;html=1;" parent="1" vertex="1">
          <mxGeometry x="725" y="1220" width="100" height="80" as="geometry" />
        </mxCell>
        <mxCell id="-PVYNfKp2_SMiAzgi10n-94" value="" style="edgeStyle=orthogonalEdgeStyle;rounded=0;orthogonalLoop=1;jettySize=auto;html=1;fontSize=13;fontColor=#000000;" parent="1" source="-PVYNfKp2_SMiAzgi10n-91" target="-PVYNfKp2_SMiAzgi10n-93" edge="1">
          <mxGeometry relative="1" as="geometry" />
        </mxCell>
        <mxCell id="-PVYNfKp2_SMiAzgi10n-91" value="Read new code typed" style="whiteSpace=wrap;html=1;" parent="1" vertex="1">
          <mxGeometry x="725" y="1330" width="100" height="40" as="geometry" />
        </mxCell>
        <mxCell id="-PVYNfKp2_SMiAzgi10n-97" value="" style="edgeStyle=orthogonalEdgeStyle;rounded=0;orthogonalLoop=1;jettySize=auto;html=1;fontSize=13;fontColor=#000000;" parent="1" source="-PVYNfKp2_SMiAzgi10n-93" target="-PVYNfKp2_SMiAzgi10n-96" edge="1">
          <mxGeometry relative="1" as="geometry" />
        </mxCell>
        <mxCell id="-PVYNfKp2_SMiAzgi10n-93" value="Read new code typed again" style="whiteSpace=wrap;html=1;" parent="1" vertex="1">
          <mxGeometry x="725" y="1410" width="100" height="40" as="geometry" />
        </mxCell>
        <mxCell id="-PVYNfKp2_SMiAzgi10n-95" value="&lt;font style=&quot;font-size: 12px;&quot;&gt;True&lt;/font&gt;" style="text;html=1;align=center;verticalAlign=middle;resizable=0;points=[];autosize=1;strokeColor=none;fillColor=none;fontSize=22;fontColor=#000000;" parent="1" vertex="1">
          <mxGeometry x="771" y="1290" width="50" height="40" as="geometry" />
        </mxCell>
        <mxCell id="-PVYNfKp2_SMiAzgi10n-99" value="" style="edgeStyle=orthogonalEdgeStyle;rounded=0;orthogonalLoop=1;jettySize=auto;html=1;fontSize=13;fontColor=#000000;" parent="1" source="-PVYNfKp2_SMiAzgi10n-96" target="-PVYNfKp2_SMiAzgi10n-98" edge="1">
          <mxGeometry relative="1" as="geometry" />
        </mxCell>
        <mxCell id="-PVYNfKp2_SMiAzgi10n-110" style="edgeStyle=orthogonalEdgeStyle;rounded=0;orthogonalLoop=1;jettySize=auto;html=1;entryX=0.5;entryY=0;entryDx=0;entryDy=0;fontSize=13;fontColor=#000000;" parent="1" source="-PVYNfKp2_SMiAzgi10n-96" target="-PVYNfKp2_SMiAzgi10n-101" edge="1">
          <mxGeometry relative="1" as="geometry" />
        </mxCell>
        <mxCell id="-PVYNfKp2_SMiAzgi10n-96" value="Two codes &lt;br&gt;matched?" style="rhombus;whiteSpace=wrap;html=1;" parent="1" vertex="1">
          <mxGeometry x="725" y="1490" width="100" height="80" as="geometry" />
        </mxCell>
        <mxCell id="-PVYNfKp2_SMiAzgi10n-118" style="edgeStyle=orthogonalEdgeStyle;rounded=0;orthogonalLoop=1;jettySize=auto;html=1;fontSize=13;fontColor=#000000;" parent="1" source="-PVYNfKp2_SMiAzgi10n-98" edge="1">
          <mxGeometry relative="1" as="geometry">
            <mxPoint x="775" y="1680" as="targetPoint" />
          </mxGeometry>
        </mxCell>
        <mxCell id="-PVYNfKp2_SMiAzgi10n-98" value="Change password" style="whiteSpace=wrap;html=1;" parent="1" vertex="1">
          <mxGeometry x="725" y="1610" width="100" height="40" as="geometry" />
        </mxCell>
        <mxCell id="-PVYNfKp2_SMiAzgi10n-100" value="&lt;font style=&quot;font-size: 12px;&quot;&gt;True&lt;/font&gt;" style="text;html=1;align=center;verticalAlign=middle;resizable=0;points=[];autosize=1;strokeColor=none;fillColor=none;fontSize=22;fontColor=#000000;" parent="1" vertex="1">
          <mxGeometry x="771" y="1570" width="50" height="40" as="geometry" />
        </mxCell>
        <mxCell id="-PVYNfKp2_SMiAzgi10n-101" value="Return" style="ellipse;whiteSpace=wrap;html=1;" parent="1" vertex="1">
          <mxGeometry x="836" y="1660" width="80" height="40" as="geometry" />
        </mxCell>
        <mxCell id="-PVYNfKp2_SMiAzgi10n-109" value="&lt;font style=&quot;font-size: 12px;&quot;&gt;False&lt;/font&gt;" style="text;html=1;align=center;verticalAlign=middle;resizable=0;points=[];autosize=1;strokeColor=none;fillColor=none;fontSize=22;fontColor=#000000;" parent="1" vertex="1">
          <mxGeometry x="851" y="1220" width="50" height="40" as="geometry" />
        </mxCell>
        <mxCell id="-PVYNfKp2_SMiAzgi10n-111" value="&lt;font style=&quot;font-size: 12px;&quot;&gt;False&lt;/font&gt;" style="text;html=1;align=center;verticalAlign=middle;resizable=0;points=[];autosize=1;strokeColor=none;fillColor=none;fontSize=22;fontColor=#000000;" parent="1" vertex="1">
          <mxGeometry x="825" y="1490" width="50" height="40" as="geometry" />
        </mxCell>
        <mxCell id="-PVYNfKp2_SMiAzgi10n-119" value="" style="edgeStyle=orthogonalEdgeStyle;rounded=0;orthogonalLoop=1;jettySize=auto;html=1;fontSize=13;fontColor=#000000;" parent="1" source="-PVYNfKp2_SMiAzgi10n-112" target="-PVYNfKp2_SMiAzgi10n-115" edge="1">
          <mxGeometry relative="1" as="geometry" />
        </mxCell>
        <mxCell id="-PVYNfKp2_SMiAzgi10n-112" value="Close the door" style="whiteSpace=wrap;html=1;" parent="1" vertex="1">
          <mxGeometry x="595" y="1160" width="100" height="40" as="geometry" />
        </mxCell>
        <mxCell id="-PVYNfKp2_SMiAzgi10n-113" value="" style="endArrow=classic;html=1;rounded=0;fontSize=13;fontColor=#000000;entryX=0.5;entryY=0;entryDx=0;entryDy=0;" parent="1" target="-PVYNfKp2_SMiAzgi10n-112" edge="1">
          <mxGeometry width="50" height="50" relative="1" as="geometry">
            <mxPoint x="645" y="1120" as="sourcePoint" />
            <mxPoint x="425" y="1390" as="targetPoint" />
          </mxGeometry>
        </mxCell>
        <mxCell id="-PVYNfKp2_SMiAzgi10n-114" value="A" style="text;html=1;align=center;verticalAlign=middle;resizable=0;points=[];autosize=1;strokeColor=none;fillColor=none;fontSize=13;fontColor=#000000;" parent="1" vertex="1">
          <mxGeometry x="645" y="1125" width="30" height="30" as="geometry" />
        </mxCell>
        <mxCell id="-PVYNfKp2_SMiAzgi10n-116" style="edgeStyle=orthogonalEdgeStyle;rounded=0;orthogonalLoop=1;jettySize=auto;html=1;entryX=0;entryY=0.5;entryDx=0;entryDy=0;fontSize=13;fontColor=#000000;" parent="1" source="-PVYNfKp2_SMiAzgi10n-115" target="-PVYNfKp2_SMiAzgi10n-101" edge="1">
          <mxGeometry relative="1" as="geometry">
            <Array as="points">
              <mxPoint x="645" y="1680" />
            </Array>
          </mxGeometry>
        </mxCell>
        <mxCell id="-PVYNfKp2_SMiAzgi10n-115" value="Send data to ESP8266" style="whiteSpace=wrap;html=1;" parent="1" vertex="1">
          <mxGeometry x="595" y="1240" width="100" height="40" as="geometry" />
        </mxCell>
        <mxCell id="-PVYNfKp2_SMiAzgi10n-122" value="" style="edgeStyle=orthogonalEdgeStyle;rounded=0;orthogonalLoop=1;jettySize=auto;html=1;fontSize=13;fontColor=#000000;" parent="1" source="-PVYNfKp2_SMiAzgi10n-120" target="-PVYNfKp2_SMiAzgi10n-121" edge="1">
          <mxGeometry relative="1" as="geometry" />
        </mxCell>
        <mxCell id="-PVYNfKp2_SMiAzgi10n-120" value="On/Off&lt;br&gt;Theft Mode" style="whiteSpace=wrap;html=1;" parent="1" vertex="1">
          <mxGeometry x="1055" y="1160" width="100" height="40" as="geometry" />
        </mxCell>
        <mxCell id="-PVYNfKp2_SMiAzgi10n-126" style="edgeStyle=orthogonalEdgeStyle;rounded=0;orthogonalLoop=1;jettySize=auto;html=1;entryX=1;entryY=0.5;entryDx=0;entryDy=0;fontSize=13;fontColor=#000000;" parent="1" source="-PVYNfKp2_SMiAzgi10n-121" target="-PVYNfKp2_SMiAzgi10n-101" edge="1">
          <mxGeometry relative="1" as="geometry">
            <Array as="points">
              <mxPoint x="1105" y="1680" />
            </Array>
          </mxGeometry>
        </mxCell>
        <mxCell id="-PVYNfKp2_SMiAzgi10n-121" value="Send data to ESP8266" style="whiteSpace=wrap;html=1;" parent="1" vertex="1">
          <mxGeometry x="1055" y="1240" width="100" height="40" as="geometry" />
        </mxCell>
        <mxCell id="-PVYNfKp2_SMiAzgi10n-124" value="" style="edgeStyle=orthogonalEdgeStyle;rounded=0;orthogonalLoop=1;jettySize=auto;html=1;fontSize=22;fontColor=#000000;" parent="1" edge="1">
          <mxGeometry relative="1" as="geometry">
            <mxPoint x="1104.5" y="1120" as="sourcePoint" />
            <mxPoint x="1104.5" y="1160" as="targetPoint" />
          </mxGeometry>
        </mxCell>
        <mxCell id="-PVYNfKp2_SMiAzgi10n-125" value="B" style="text;html=1;align=center;verticalAlign=middle;resizable=0;points=[];autosize=1;strokeColor=none;fillColor=none;fontSize=13;fontColor=#000000;" parent="1" vertex="1">
          <mxGeometry x="1105" y="1125" width="30" height="30" as="geometry" />
        </mxCell>
        <mxCell id="-PVYNfKp2_SMiAzgi10n-132" value="" style="edgeStyle=orthogonalEdgeStyle;rounded=0;orthogonalLoop=1;jettySize=auto;html=1;fontSize=13;fontColor=#000000;" parent="1" target="-PVYNfKp2_SMiAzgi10n-130" edge="1">
          <mxGeometry relative="1" as="geometry">
            <mxPoint x="1527.5" y="103" as="sourcePoint" />
          </mxGeometry>
        </mxCell>
        <mxCell id="-PVYNfKp2_SMiAzgi10n-129" value="Begin" style="ellipse;whiteSpace=wrap;html=1;" parent="1" vertex="1">
          <mxGeometry x="1487.5" y="63" width="80" height="40" as="geometry" />
        </mxCell>
        <mxCell id="-PVYNfKp2_SMiAzgi10n-133" value="" style="edgeStyle=orthogonalEdgeStyle;rounded=0;orthogonalLoop=1;jettySize=auto;html=1;fontSize=13;fontColor=#000000;" parent="1" source="-PVYNfKp2_SMiAzgi10n-130" target="-PVYNfKp2_SMiAzgi10n-131" edge="1">
          <mxGeometry relative="1" as="geometry" />
        </mxCell>
        <mxCell id="-PVYNfKp2_SMiAzgi10n-136" value="" style="edgeStyle=orthogonalEdgeStyle;rounded=0;orthogonalLoop=1;jettySize=auto;html=1;fontSize=12;fontColor=#000000;" parent="1" source="-PVYNfKp2_SMiAzgi10n-130" target="-PVYNfKp2_SMiAzgi10n-135" edge="1">
          <mxGeometry relative="1" as="geometry" />
        </mxCell>
        <mxCell id="-PVYNfKp2_SMiAzgi10n-130" value="doorBtn pressed?" style="rhombus;whiteSpace=wrap;html=1;" parent="1" vertex="1">
          <mxGeometry x="1480" y="123" width="95" height="80" as="geometry" />
        </mxCell>
        <mxCell id="-PVYNfKp2_SMiAzgi10n-177" style="edgeStyle=orthogonalEdgeStyle;rounded=0;orthogonalLoop=1;jettySize=auto;html=1;entryX=0.5;entryY=0;entryDx=0;entryDy=0;fontSize=12;fontColor=#000000;" parent="1" source="-PVYNfKp2_SMiAzgi10n-131" target="-PVYNfKp2_SMiAzgi10n-176" edge="1">
          <mxGeometry relative="1" as="geometry" />
        </mxCell>
        <mxCell id="-PVYNfKp2_SMiAzgi10n-131" value="Open/Close the door" style="whiteSpace=wrap;html=1;" parent="1" vertex="1">
          <mxGeometry x="1607.5" y="143" width="80" height="40" as="geometry" />
        </mxCell>
        <mxCell id="-PVYNfKp2_SMiAzgi10n-134" value="&lt;font style=&quot;font-size: 12px;&quot;&gt;True&lt;/font&gt;" style="text;html=1;align=center;verticalAlign=middle;resizable=0;points=[];autosize=1;strokeColor=none;fillColor=none;fontSize=13;fontColor=#000000;" parent="1" vertex="1">
          <mxGeometry x="1557.5" y="133" width="50" height="30" as="geometry" />
        </mxCell>
        <mxCell id="-PVYNfKp2_SMiAzgi10n-143" value="" style="edgeStyle=orthogonalEdgeStyle;rounded=0;orthogonalLoop=1;jettySize=auto;html=1;fontSize=12;fontColor=#000000;" parent="1" source="-PVYNfKp2_SMiAzgi10n-135" target="-PVYNfKp2_SMiAzgi10n-142" edge="1">
          <mxGeometry relative="1" as="geometry" />
        </mxCell>
        <mxCell id="-PVYNfKp2_SMiAzgi10n-146" value="" style="edgeStyle=orthogonalEdgeStyle;rounded=0;orthogonalLoop=1;jettySize=auto;html=1;fontSize=12;fontColor=#000000;" parent="1" source="-PVYNfKp2_SMiAzgi10n-135" target="-PVYNfKp2_SMiAzgi10n-145" edge="1">
          <mxGeometry relative="1" as="geometry" />
        </mxCell>
        <mxCell id="-PVYNfKp2_SMiAzgi10n-135" value="hangerBtn pressed?" style="rhombus;whiteSpace=wrap;html=1;" parent="1" vertex="1">
          <mxGeometry x="1480" y="225.5" width="95" height="80" as="geometry" />
        </mxCell>
        <mxCell id="-PVYNfKp2_SMiAzgi10n-137" value="False" style="text;html=1;align=center;verticalAlign=middle;resizable=0;points=[];autosize=1;strokeColor=none;fillColor=none;fontSize=12;fontColor=#000000;" parent="1" vertex="1">
          <mxGeometry x="1522.5" y="195.5" width="50" height="30" as="geometry" />
        </mxCell>
        <mxCell id="-PVYNfKp2_SMiAzgi10n-180" style="edgeStyle=orthogonalEdgeStyle;rounded=0;orthogonalLoop=1;jettySize=auto;html=1;fontSize=12;fontColor=#000000;" parent="1" source="-PVYNfKp2_SMiAzgi10n-138" target="-PVYNfKp2_SMiAzgi10n-176" edge="1">
          <mxGeometry relative="1" as="geometry" />
        </mxCell>
        <mxCell id="-PVYNfKp2_SMiAzgi10n-138" value="Open/Close the hanger" style="whiteSpace=wrap;html=1;" parent="1" vertex="1">
          <mxGeometry x="1737.5" y="245.5" width="80" height="40" as="geometry" />
        </mxCell>
        <mxCell id="-PVYNfKp2_SMiAzgi10n-140" value="&lt;font style=&quot;font-size: 12px;&quot;&gt;True&lt;/font&gt;" style="text;html=1;align=center;verticalAlign=middle;resizable=0;points=[];autosize=1;strokeColor=none;fillColor=none;fontSize=13;fontColor=#000000;" parent="1" vertex="1">
          <mxGeometry x="1557.5" y="236" width="50" height="30" as="geometry" />
        </mxCell>
        <mxCell id="-PVYNfKp2_SMiAzgi10n-154" value="" style="edgeStyle=orthogonalEdgeStyle;rounded=0;orthogonalLoop=1;jettySize=auto;html=1;fontSize=12;fontColor=#000000;" parent="1" source="-PVYNfKp2_SMiAzgi10n-142" target="-PVYNfKp2_SMiAzgi10n-153" edge="1">
          <mxGeometry relative="1" as="geometry" />
        </mxCell>
        <mxCell id="-PVYNfKp2_SMiAzgi10n-157" value="" style="edgeStyle=orthogonalEdgeStyle;rounded=0;orthogonalLoop=1;jettySize=auto;html=1;fontSize=12;fontColor=#000000;" parent="1" source="-PVYNfKp2_SMiAzgi10n-142" target="-PVYNfKp2_SMiAzgi10n-156" edge="1">
          <mxGeometry relative="1" as="geometry" />
        </mxCell>
        <mxCell id="-PVYNfKp2_SMiAzgi10n-142" value="li_lightBtn pressed?" style="rhombus;whiteSpace=wrap;html=1;" parent="1" vertex="1">
          <mxGeometry x="1480" y="328" width="95" height="80" as="geometry" />
        </mxCell>
        <mxCell id="-PVYNfKp2_SMiAzgi10n-144" value="False" style="text;html=1;align=center;verticalAlign=middle;resizable=0;points=[];autosize=1;strokeColor=none;fillColor=none;fontSize=12;fontColor=#000000;" parent="1" vertex="1">
          <mxGeometry x="1522.5" y="298" width="50" height="30" as="geometry" />
        </mxCell>
        <mxCell id="-PVYNfKp2_SMiAzgi10n-148" value="" style="edgeStyle=orthogonalEdgeStyle;rounded=0;orthogonalLoop=1;jettySize=auto;html=1;fontSize=12;fontColor=#000000;" parent="1" source="-PVYNfKp2_SMiAzgi10n-145" target="-PVYNfKp2_SMiAzgi10n-138" edge="1">
          <mxGeometry relative="1" as="geometry" />
        </mxCell>
        <mxCell id="-PVYNfKp2_SMiAzgi10n-151" style="edgeStyle=orthogonalEdgeStyle;rounded=0;orthogonalLoop=1;jettySize=auto;html=1;fontSize=12;fontColor=#000000;" parent="1" source="-PVYNfKp2_SMiAzgi10n-145" target="-PVYNfKp2_SMiAzgi10n-144" edge="1">
          <mxGeometry relative="1" as="geometry">
            <Array as="points">
              <mxPoint x="1655.5" y="313" />
            </Array>
          </mxGeometry>
        </mxCell>
        <mxCell id="-PVYNfKp2_SMiAzgi10n-145" value="Rain?" style="rhombus;whiteSpace=wrap;html=1;" parent="1" vertex="1">
          <mxGeometry x="1607.5" y="225.5" width="95" height="80" as="geometry" />
        </mxCell>
        <mxCell id="-PVYNfKp2_SMiAzgi10n-149" value="&lt;font style=&quot;font-size: 12px;&quot;&gt;False&lt;/font&gt;" style="text;html=1;align=center;verticalAlign=middle;resizable=0;points=[];autosize=1;strokeColor=none;fillColor=none;fontSize=13;fontColor=#000000;" parent="1" vertex="1">
          <mxGeometry x="1687.5" y="236" width="50" height="30" as="geometry" />
        </mxCell>
        <mxCell id="-PVYNfKp2_SMiAzgi10n-152" value="&lt;font style=&quot;font-size: 12px;&quot;&gt;True&lt;/font&gt;" style="text;html=1;align=center;verticalAlign=middle;resizable=0;points=[];autosize=1;strokeColor=none;fillColor=none;fontSize=13;fontColor=#000000;" parent="1" vertex="1">
          <mxGeometry x="1652.5" y="298" width="50" height="30" as="geometry" />
        </mxCell>
        <mxCell id="-PVYNfKp2_SMiAzgi10n-181" style="edgeStyle=orthogonalEdgeStyle;rounded=0;orthogonalLoop=1;jettySize=auto;html=1;fontSize=12;fontColor=#000000;" parent="1" source="-PVYNfKp2_SMiAzgi10n-153" target="-PVYNfKp2_SMiAzgi10n-176" edge="1">
          <mxGeometry relative="1" as="geometry" />
        </mxCell>
        <mxCell id="-PVYNfKp2_SMiAzgi10n-153" value="On/Off livingroom light" style="whiteSpace=wrap;html=1;" parent="1" vertex="1">
          <mxGeometry x="1607.5" y="348" width="90" height="40" as="geometry" />
        </mxCell>
        <mxCell id="-PVYNfKp2_SMiAzgi10n-155" value="&lt;font style=&quot;font-size: 12px;&quot;&gt;True&lt;/font&gt;" style="text;html=1;align=center;verticalAlign=middle;resizable=0;points=[];autosize=1;strokeColor=none;fillColor=none;fontSize=13;fontColor=#000000;" parent="1" vertex="1">
          <mxGeometry x="1557.5" y="338" width="50" height="30" as="geometry" />
        </mxCell>
        <mxCell id="-PVYNfKp2_SMiAzgi10n-160" value="" style="edgeStyle=orthogonalEdgeStyle;rounded=0;orthogonalLoop=1;jettySize=auto;html=1;fontSize=12;fontColor=#000000;" parent="1" source="-PVYNfKp2_SMiAzgi10n-156" edge="1">
          <mxGeometry relative="1" as="geometry">
            <mxPoint x="1607.5" y="473" as="targetPoint" />
          </mxGeometry>
        </mxCell>
        <mxCell id="-PVYNfKp2_SMiAzgi10n-164" value="" style="edgeStyle=orthogonalEdgeStyle;rounded=0;orthogonalLoop=1;jettySize=auto;html=1;fontSize=12;fontColor=#000000;" parent="1" source="-PVYNfKp2_SMiAzgi10n-156" target="-PVYNfKp2_SMiAzgi10n-163" edge="1">
          <mxGeometry relative="1" as="geometry" />
        </mxCell>
        <mxCell id="-PVYNfKp2_SMiAzgi10n-156" value="li_fanBtn pressed?" style="rhombus;whiteSpace=wrap;html=1;" parent="1" vertex="1">
          <mxGeometry x="1480" y="433" width="95" height="80" as="geometry" />
        </mxCell>
        <mxCell id="-PVYNfKp2_SMiAzgi10n-158" value="False" style="text;html=1;align=center;verticalAlign=middle;resizable=0;points=[];autosize=1;strokeColor=none;fillColor=none;fontSize=12;fontColor=#000000;" parent="1" vertex="1">
          <mxGeometry x="1523.5" y="404" width="50" height="30" as="geometry" />
        </mxCell>
        <mxCell id="-PVYNfKp2_SMiAzgi10n-161" value="&lt;font style=&quot;font-size: 12px;&quot;&gt;True&lt;/font&gt;" style="text;html=1;align=center;verticalAlign=middle;resizable=0;points=[];autosize=1;strokeColor=none;fillColor=none;fontSize=13;fontColor=#000000;" parent="1" vertex="1">
          <mxGeometry x="1557.5" y="443" width="50" height="30" as="geometry" />
        </mxCell>
        <mxCell id="-PVYNfKp2_SMiAzgi10n-182" style="edgeStyle=orthogonalEdgeStyle;rounded=0;orthogonalLoop=1;jettySize=auto;html=1;entryX=0.5;entryY=1;entryDx=0;entryDy=0;fontSize=12;fontColor=#000000;" parent="1" source="-PVYNfKp2_SMiAzgi10n-162" target="-PVYNfKp2_SMiAzgi10n-176" edge="1">
          <mxGeometry relative="1" as="geometry" />
        </mxCell>
        <mxCell id="-PVYNfKp2_SMiAzgi10n-162" value="On/Off livingroom fan" style="whiteSpace=wrap;html=1;" parent="1" vertex="1">
          <mxGeometry x="1607.5" y="453" width="90" height="40" as="geometry" />
        </mxCell>
        <mxCell id="-PVYNfKp2_SMiAzgi10n-167" value="" style="edgeStyle=orthogonalEdgeStyle;rounded=0;orthogonalLoop=1;jettySize=auto;html=1;fontSize=12;fontColor=#000000;" parent="1" source="-PVYNfKp2_SMiAzgi10n-163" target="-PVYNfKp2_SMiAzgi10n-166" edge="1">
          <mxGeometry relative="1" as="geometry" />
        </mxCell>
        <mxCell id="-PVYNfKp2_SMiAzgi10n-171" value="" style="edgeStyle=orthogonalEdgeStyle;rounded=0;orthogonalLoop=1;jettySize=auto;html=1;fontSize=12;fontColor=#000000;" parent="1" source="-PVYNfKp2_SMiAzgi10n-163" target="-PVYNfKp2_SMiAzgi10n-170" edge="1">
          <mxGeometry relative="1" as="geometry" />
        </mxCell>
        <mxCell id="-PVYNfKp2_SMiAzgi10n-163" value="pirBtn&lt;br&gt;pressed?" style="rhombus;whiteSpace=wrap;html=1;" parent="1" vertex="1">
          <mxGeometry x="1480" y="533" width="95" height="80" as="geometry" />
        </mxCell>
        <mxCell id="-PVYNfKp2_SMiAzgi10n-165" value="False" style="text;html=1;align=center;verticalAlign=middle;resizable=0;points=[];autosize=1;strokeColor=none;fillColor=none;fontSize=12;fontColor=#000000;" parent="1" vertex="1">
          <mxGeometry x="1524" y="506" width="50" height="30" as="geometry" />
        </mxCell>
        <mxCell id="-PVYNfKp2_SMiAzgi10n-183" style="edgeStyle=orthogonalEdgeStyle;rounded=0;orthogonalLoop=1;jettySize=auto;html=1;fontSize=12;fontColor=#000000;" parent="1" source="-PVYNfKp2_SMiAzgi10n-166" target="-PVYNfKp2_SMiAzgi10n-176" edge="1">
          <mxGeometry relative="1" as="geometry" />
        </mxCell>
        <mxCell id="-PVYNfKp2_SMiAzgi10n-166" value="On/Off&lt;br&gt;theft mode" style="whiteSpace=wrap;html=1;" parent="1" vertex="1">
          <mxGeometry x="1607.5" y="553" width="90" height="40" as="geometry" />
        </mxCell>
        <mxCell id="-PVYNfKp2_SMiAzgi10n-168" value="&lt;font style=&quot;font-size: 12px;&quot;&gt;True&lt;/font&gt;" style="text;html=1;align=center;verticalAlign=middle;resizable=0;points=[];autosize=1;strokeColor=none;fillColor=none;fontSize=13;fontColor=#000000;" parent="1" vertex="1">
          <mxGeometry x="1557.5" y="543" width="50" height="30" as="geometry" />
        </mxCell>
        <mxCell id="-PVYNfKp2_SMiAzgi10n-174" value="" style="edgeStyle=orthogonalEdgeStyle;rounded=0;orthogonalLoop=1;jettySize=auto;html=1;fontSize=12;fontColor=#000000;" parent="1" source="-PVYNfKp2_SMiAzgi10n-170" target="-PVYNfKp2_SMiAzgi10n-173" edge="1">
          <mxGeometry relative="1" as="geometry" />
        </mxCell>
        <mxCell id="-PVYNfKp2_SMiAzgi10n-170" value="speakerBtn&lt;br&gt;pressed?" style="rhombus;whiteSpace=wrap;html=1;" parent="1" vertex="1">
          <mxGeometry x="1480" y="633" width="95" height="80" as="geometry" />
        </mxCell>
        <mxCell id="-PVYNfKp2_SMiAzgi10n-172" value="False" style="text;html=1;align=center;verticalAlign=middle;resizable=0;points=[];autosize=1;strokeColor=none;fillColor=none;fontSize=12;fontColor=#000000;" parent="1" vertex="1">
          <mxGeometry x="1523" y="605" width="50" height="30" as="geometry" />
        </mxCell>
        <mxCell id="-PVYNfKp2_SMiAzgi10n-184" style="edgeStyle=orthogonalEdgeStyle;rounded=0;orthogonalLoop=1;jettySize=auto;html=1;fontSize=12;fontColor=#000000;" parent="1" source="-PVYNfKp2_SMiAzgi10n-173" target="-PVYNfKp2_SMiAzgi10n-176" edge="1">
          <mxGeometry relative="1" as="geometry" />
        </mxCell>
        <mxCell id="-PVYNfKp2_SMiAzgi10n-173" value="On/Off&lt;br&gt;speaker" style="whiteSpace=wrap;html=1;" parent="1" vertex="1">
          <mxGeometry x="1607.5" y="653" width="90" height="40" as="geometry" />
        </mxCell>
        <mxCell id="-PVYNfKp2_SMiAzgi10n-175" value="&lt;font style=&quot;font-size: 12px;&quot;&gt;True&lt;/font&gt;" style="text;html=1;align=center;verticalAlign=middle;resizable=0;points=[];autosize=1;strokeColor=none;fillColor=none;fontSize=13;fontColor=#000000;" parent="1" vertex="1">
          <mxGeometry x="1557.5" y="643" width="50" height="30" as="geometry" />
        </mxCell>
        <mxCell id="-PVYNfKp2_SMiAzgi10n-186" value="" style="edgeStyle=orthogonalEdgeStyle;rounded=0;orthogonalLoop=1;jettySize=auto;html=1;fontSize=12;fontColor=#000000;" parent="1" source="-PVYNfKp2_SMiAzgi10n-176" target="-PVYNfKp2_SMiAzgi10n-185" edge="1">
          <mxGeometry relative="1" as="geometry" />
        </mxCell>
        <mxCell id="-PVYNfKp2_SMiAzgi10n-176" value="Send data to ESP8266" style="whiteSpace=wrap;html=1;" parent="1" vertex="1">
          <mxGeometry x="1847.5" y="403" width="90" height="40" as="geometry" />
        </mxCell>
        <mxCell id="-PVYNfKp2_SMiAzgi10n-185" value="Return" style="ellipse;whiteSpace=wrap;html=1;" parent="1" vertex="1">
          <mxGeometry x="1967.5" y="404" width="80" height="40" as="geometry" />
        </mxCell>
        <mxCell id="-PVYNfKp2_SMiAzgi10n-191" value="" style="edgeStyle=orthogonalEdgeStyle;rounded=0;orthogonalLoop=1;jettySize=auto;html=1;fontSize=12;fontColor=#000000;" parent="1" source="-PVYNfKp2_SMiAzgi10n-187" target="-PVYNfKp2_SMiAzgi10n-188" edge="1">
          <mxGeometry relative="1" as="geometry" />
        </mxCell>
        <mxCell id="-PVYNfKp2_SMiAzgi10n-187" value="Begin" style="ellipse;whiteSpace=wrap;html=1;" parent="1" vertex="1">
          <mxGeometry x="1500" y="893" width="80" height="40" as="geometry" />
        </mxCell>
        <mxCell id="-PVYNfKp2_SMiAzgi10n-190" value="" style="edgeStyle=orthogonalEdgeStyle;rounded=0;orthogonalLoop=1;jettySize=auto;html=1;fontSize=12;fontColor=#000000;" parent="1" source="-PVYNfKp2_SMiAzgi10n-188" target="-PVYNfKp2_SMiAzgi10n-189" edge="1">
          <mxGeometry relative="1" as="geometry" />
        </mxCell>
        <mxCell id="-PVYNfKp2_SMiAzgi10n-196" value="" style="edgeStyle=orthogonalEdgeStyle;rounded=0;orthogonalLoop=1;jettySize=auto;html=1;fontSize=12;fontColor=#000000;" parent="1" source="-PVYNfKp2_SMiAzgi10n-188" target="-PVYNfKp2_SMiAzgi10n-195" edge="1">
          <mxGeometry relative="1" as="geometry" />
        </mxCell>
        <mxCell id="-PVYNfKp2_SMiAzgi10n-188" value="10s&lt;br&gt;interval?" style="rhombus;whiteSpace=wrap;html=1;" parent="1" vertex="1">
          <mxGeometry x="1492.5" y="963" width="95" height="80" as="geometry" />
        </mxCell>
        <mxCell id="-PVYNfKp2_SMiAzgi10n-193" value="" style="edgeStyle=orthogonalEdgeStyle;rounded=0;orthogonalLoop=1;jettySize=auto;html=1;fontSize=12;fontColor=#000000;" parent="1" source="-PVYNfKp2_SMiAzgi10n-189" target="-PVYNfKp2_SMiAzgi10n-192" edge="1">
          <mxGeometry relative="1" as="geometry" />
        </mxCell>
        <mxCell id="-PVYNfKp2_SMiAzgi10n-189" value="Read temp, humid sensor&amp;nbsp;" style="whiteSpace=wrap;html=1;" parent="1" vertex="1">
          <mxGeometry x="1627.75" y="983" width="99.5" height="40" as="geometry" />
        </mxCell>
        <mxCell id="-PVYNfKp2_SMiAzgi10n-220" value="" style="edgeStyle=orthogonalEdgeStyle;rounded=0;orthogonalLoop=1;jettySize=auto;html=1;fontSize=12;fontColor=#000000;" parent="1" source="-PVYNfKp2_SMiAzgi10n-192" target="-PVYNfKp2_SMiAzgi10n-219" edge="1">
          <mxGeometry relative="1" as="geometry" />
        </mxCell>
        <mxCell id="-PVYNfKp2_SMiAzgi10n-192" value="Send data to ESP8266" style="whiteSpace=wrap;html=1;" parent="1" vertex="1">
          <mxGeometry x="1840" y="983" width="90" height="40" as="geometry" />
        </mxCell>
        <mxCell id="-PVYNfKp2_SMiAzgi10n-194" value="True" style="text;html=1;align=center;verticalAlign=middle;resizable=0;points=[];autosize=1;strokeColor=none;fillColor=none;fontSize=12;fontColor=#000000;" parent="1" vertex="1">
          <mxGeometry x="1575" y="973" width="50" height="30" as="geometry" />
        </mxCell>
        <mxCell id="-PVYNfKp2_SMiAzgi10n-199" value="" style="edgeStyle=orthogonalEdgeStyle;rounded=0;orthogonalLoop=1;jettySize=auto;html=1;fontSize=12;fontColor=#000000;" parent="1" source="-PVYNfKp2_SMiAzgi10n-195" target="-PVYNfKp2_SMiAzgi10n-198" edge="1">
          <mxGeometry relative="1" as="geometry" />
        </mxCell>
        <mxCell id="-PVYNfKp2_SMiAzgi10n-208" value="" style="edgeStyle=orthogonalEdgeStyle;rounded=0;orthogonalLoop=1;jettySize=auto;html=1;fontSize=12;fontColor=#000000;" parent="1" source="-PVYNfKp2_SMiAzgi10n-195" target="-PVYNfKp2_SMiAzgi10n-207" edge="1">
          <mxGeometry relative="1" as="geometry" />
        </mxCell>
        <mxCell id="-PVYNfKp2_SMiAzgi10n-195" value="Theft mode?" style="rhombus;whiteSpace=wrap;html=1;" parent="1" vertex="1">
          <mxGeometry x="1492.5" y="1073" width="95" height="80" as="geometry" />
        </mxCell>
        <mxCell id="-PVYNfKp2_SMiAzgi10n-197" value="False" style="text;html=1;align=center;verticalAlign=middle;resizable=0;points=[];autosize=1;strokeColor=none;fillColor=none;fontSize=12;fontColor=#000000;" parent="1" vertex="1">
          <mxGeometry x="1537.5" y="1043" width="50" height="30" as="geometry" />
        </mxCell>
        <mxCell id="-PVYNfKp2_SMiAzgi10n-204" value="" style="edgeStyle=orthogonalEdgeStyle;rounded=0;orthogonalLoop=1;jettySize=auto;html=1;fontSize=12;fontColor=#000000;" parent="1" source="-PVYNfKp2_SMiAzgi10n-198" target="-PVYNfKp2_SMiAzgi10n-203" edge="1">
          <mxGeometry relative="1" as="geometry" />
        </mxCell>
        <mxCell id="-PVYNfKp2_SMiAzgi10n-198" value="Human detected?" style="rhombus;whiteSpace=wrap;html=1;" parent="1" vertex="1">
          <mxGeometry x="1630" y="1073" width="95" height="80" as="geometry" />
        </mxCell>
        <mxCell id="-PVYNfKp2_SMiAzgi10n-202" value="True" style="text;html=1;align=center;verticalAlign=middle;resizable=0;points=[];autosize=1;strokeColor=none;fillColor=none;fontSize=12;fontColor=#000000;" parent="1" vertex="1">
          <mxGeometry x="1573.5" y="1083" width="50" height="30" as="geometry" />
        </mxCell>
        <mxCell id="-PVYNfKp2_SMiAzgi10n-214" style="edgeStyle=orthogonalEdgeStyle;rounded=0;orthogonalLoop=1;jettySize=auto;html=1;entryX=0.5;entryY=1;entryDx=0;entryDy=0;fontSize=12;fontColor=#000000;" parent="1" source="-PVYNfKp2_SMiAzgi10n-203" target="-PVYNfKp2_SMiAzgi10n-192" edge="1">
          <mxGeometry relative="1" as="geometry">
            <Array as="points">
              <mxPoint x="1885" y="1113" />
            </Array>
          </mxGeometry>
        </mxCell>
        <mxCell id="-PVYNfKp2_SMiAzgi10n-203" value="Warning speaker, alert light" style="whiteSpace=wrap;html=1;" parent="1" vertex="1">
          <mxGeometry x="1760.5" y="1093" width="99.5" height="40" as="geometry" />
        </mxCell>
        <mxCell id="-PVYNfKp2_SMiAzgi10n-205" value="True" style="text;html=1;align=center;verticalAlign=middle;resizable=0;points=[];autosize=1;strokeColor=none;fillColor=none;fontSize=12;fontColor=#000000;" parent="1" vertex="1">
          <mxGeometry x="1710.5" y="1083" width="50" height="30" as="geometry" />
        </mxCell>
        <mxCell id="-PVYNfKp2_SMiAzgi10n-210" style="edgeStyle=orthogonalEdgeStyle;rounded=0;orthogonalLoop=1;jettySize=auto;html=1;entryX=0.5;entryY=1;entryDx=0;entryDy=0;fontSize=12;fontColor=#000000;" parent="1" source="-PVYNfKp2_SMiAzgi10n-207" target="-PVYNfKp2_SMiAzgi10n-203" edge="1">
          <mxGeometry relative="1" as="geometry" />
        </mxCell>
        <mxCell id="-PVYNfKp2_SMiAzgi10n-212" value="" style="edgeStyle=orthogonalEdgeStyle;rounded=0;orthogonalLoop=1;jettySize=auto;html=1;fontSize=12;fontColor=#000000;" parent="1" source="-PVYNfKp2_SMiAzgi10n-207" target="-PVYNfKp2_SMiAzgi10n-211" edge="1">
          <mxGeometry relative="1" as="geometry" />
        </mxCell>
        <mxCell id="-PVYNfKp2_SMiAzgi10n-207" value="Gas leaked?" style="rhombus;whiteSpace=wrap;html=1;" parent="1" vertex="1">
          <mxGeometry x="1492.5" y="1180" width="95" height="80" as="geometry" />
        </mxCell>
        <mxCell id="-PVYNfKp2_SMiAzgi10n-209" value="False" style="text;html=1;align=center;verticalAlign=middle;resizable=0;points=[];autosize=1;strokeColor=none;fillColor=none;fontSize=12;fontColor=#000000;" parent="1" vertex="1">
          <mxGeometry x="1537.5" y="1153" width="50" height="30" as="geometry" />
        </mxCell>
        <mxCell id="-PVYNfKp2_SMiAzgi10n-216" value="" style="edgeStyle=orthogonalEdgeStyle;rounded=0;orthogonalLoop=1;jettySize=auto;html=1;fontSize=12;fontColor=#000000;" parent="1" source="-PVYNfKp2_SMiAzgi10n-211" target="-PVYNfKp2_SMiAzgi10n-215" edge="1">
          <mxGeometry relative="1" as="geometry" />
        </mxCell>
        <mxCell id="-PVYNfKp2_SMiAzgi10n-211" value="Rain?" style="rhombus;whiteSpace=wrap;html=1;" parent="1" vertex="1">
          <mxGeometry x="1492.5" y="1288" width="95" height="80" as="geometry" />
        </mxCell>
        <mxCell id="-PVYNfKp2_SMiAzgi10n-213" value="False" style="text;html=1;align=center;verticalAlign=middle;resizable=0;points=[];autosize=1;strokeColor=none;fillColor=none;fontSize=12;fontColor=#000000;" parent="1" vertex="1">
          <mxGeometry x="1537.5" y="1258" width="50" height="30" as="geometry" />
        </mxCell>
        <mxCell id="-PVYNfKp2_SMiAzgi10n-217" style="edgeStyle=orthogonalEdgeStyle;rounded=0;orthogonalLoop=1;jettySize=auto;html=1;fontSize=12;fontColor=#000000;" parent="1" source="-PVYNfKp2_SMiAzgi10n-215" target="-PVYNfKp2_SMiAzgi10n-192" edge="1">
          <mxGeometry relative="1" as="geometry" />
        </mxCell>
        <mxCell id="-PVYNfKp2_SMiAzgi10n-215" value="Close hanger" style="whiteSpace=wrap;html=1;" parent="1" vertex="1">
          <mxGeometry x="1627.75" y="1308" width="99.5" height="40" as="geometry" />
        </mxCell>
        <mxCell id="-PVYNfKp2_SMiAzgi10n-218" value="True" style="text;html=1;align=center;verticalAlign=middle;resizable=0;points=[];autosize=1;strokeColor=none;fillColor=none;fontSize=12;fontColor=#000000;" parent="1" vertex="1">
          <mxGeometry x="1575" y="1300" width="50" height="30" as="geometry" />
        </mxCell>
        <mxCell id="-PVYNfKp2_SMiAzgi10n-219" value="Return" style="ellipse;whiteSpace=wrap;html=1;" parent="1" vertex="1">
          <mxGeometry x="1950" y="983" width="80" height="40" as="geometry" />
        </mxCell>
        <mxCell id="xV7rPPbxMvEB-hkKfdRj-8" value="" style="edgeStyle=orthogonalEdgeStyle;rounded=0;orthogonalLoop=1;jettySize=auto;html=1;" parent="1" source="xV7rPPbxMvEB-hkKfdRj-1" target="xV7rPPbxMvEB-hkKfdRj-3" edge="1">
          <mxGeometry relative="1" as="geometry" />
        </mxCell>
        <mxCell id="xV7rPPbxMvEB-hkKfdRj-1" value="Begin" style="ellipse;whiteSpace=wrap;html=1;" parent="1" vertex="1">
          <mxGeometry x="2830" y="103" width="80" height="40" as="geometry" />
        </mxCell>
        <mxCell id="xV7rPPbxMvEB-hkKfdRj-9" value="" style="edgeStyle=orthogonalEdgeStyle;rounded=0;orthogonalLoop=1;jettySize=auto;html=1;" parent="1" source="xV7rPPbxMvEB-hkKfdRj-3" target="xV7rPPbxMvEB-hkKfdRj-6" edge="1">
          <mxGeometry relative="1" as="geometry" />
        </mxCell>
        <mxCell id="xV7rPPbxMvEB-hkKfdRj-3" value="Connect to Wifi" style="rounded=0;whiteSpace=wrap;html=1;" parent="1" vertex="1">
          <mxGeometry x="2790" y="163" width="160" height="40" as="geometry" />
        </mxCell>
        <mxCell id="xV7rPPbxMvEB-hkKfdRj-10" value="" style="edgeStyle=orthogonalEdgeStyle;rounded=0;orthogonalLoop=1;jettySize=auto;html=1;" parent="1" source="xV7rPPbxMvEB-hkKfdRj-6" target="xV7rPPbxMvEB-hkKfdRj-7" edge="1">
          <mxGeometry relative="1" as="geometry" />
        </mxCell>
        <mxCell id="xV7rPPbxMvEB-hkKfdRj-6" value="Connect to Thingsboard" style="rounded=0;whiteSpace=wrap;html=1;" parent="1" vertex="1">
          <mxGeometry x="2790" y="231" width="160" height="40" as="geometry" />
        </mxCell>
        <mxCell id="xV7rPPbxMvEB-hkKfdRj-30" value="" style="edgeStyle=orthogonalEdgeStyle;rounded=0;orthogonalLoop=1;jettySize=auto;html=1;" parent="1" source="xV7rPPbxMvEB-hkKfdRj-7" target="xV7rPPbxMvEB-hkKfdRj-11" edge="1">
          <mxGeometry relative="1" as="geometry" />
        </mxCell>
        <mxCell id="xV7rPPbxMvEB-hkKfdRj-56" value="" style="edgeStyle=orthogonalEdgeStyle;rounded=0;orthogonalLoop=1;jettySize=auto;html=1;" parent="1" source="xV7rPPbxMvEB-hkKfdRj-7" target="xV7rPPbxMvEB-hkKfdRj-55" edge="1">
          <mxGeometry relative="1" as="geometry" />
        </mxCell>
        <mxCell id="xV7rPPbxMvEB-hkKfdRj-7" value="Subscribe to topic:&lt;br&gt;v1/devices/me/rpc/request/+" style="rounded=0;whiteSpace=wrap;html=1;" parent="1" vertex="1">
          <mxGeometry x="2790" y="293" width="160" height="60" as="geometry" />
        </mxCell>
        <mxCell id="xV7rPPbxMvEB-hkKfdRj-59" style="edgeStyle=orthogonalEdgeStyle;rounded=0;orthogonalLoop=1;jettySize=auto;html=1;entryX=0.5;entryY=0;entryDx=0;entryDy=0;" parent="1" source="xV7rPPbxMvEB-hkKfdRj-11" target="xV7rPPbxMvEB-hkKfdRj-12" edge="1">
          <mxGeometry relative="1" as="geometry" />
        </mxCell>
        <mxCell id="xV7rPPbxMvEB-hkKfdRj-76" style="edgeStyle=orthogonalEdgeStyle;rounded=0;orthogonalLoop=1;jettySize=auto;html=1;" parent="1" source="xV7rPPbxMvEB-hkKfdRj-11" edge="1">
          <mxGeometry relative="1" as="geometry">
            <mxPoint x="2587.25" y="323" as="targetPoint" />
          </mxGeometry>
        </mxCell>
        <mxCell id="xV7rPPbxMvEB-hkKfdRj-11" value="Serial&lt;br&gt;available?" style="rhombus;whiteSpace=wrap;html=1;" parent="1" vertex="1">
          <mxGeometry x="2639.75" y="283.5" width="95" height="80" as="geometry" />
        </mxCell>
        <mxCell id="xV7rPPbxMvEB-hkKfdRj-63" style="edgeStyle=orthogonalEdgeStyle;rounded=0;orthogonalLoop=1;jettySize=auto;html=1;entryX=0.5;entryY=0;entryDx=0;entryDy=0;" parent="1" source="xV7rPPbxMvEB-hkKfdRj-12" target="xV7rPPbxMvEB-hkKfdRj-23" edge="1">
          <mxGeometry relative="1" as="geometry" />
        </mxCell>
        <mxCell id="xV7rPPbxMvEB-hkKfdRj-12" value="Deserialize JSON message from Arduino Mega" style="whiteSpace=wrap;html=1;" parent="1" vertex="1">
          <mxGeometry x="2607.25" y="403" width="160" height="50" as="geometry" />
        </mxCell>
        <mxCell id="xV7rPPbxMvEB-hkKfdRj-44" value="" style="edgeStyle=orthogonalEdgeStyle;rounded=0;orthogonalLoop=1;jettySize=auto;html=1;" parent="1" source="xV7rPPbxMvEB-hkKfdRj-23" target="xV7rPPbxMvEB-hkKfdRj-27" edge="1">
          <mxGeometry relative="1" as="geometry" />
        </mxCell>
        <mxCell id="xV7rPPbxMvEB-hkKfdRj-78" style="edgeStyle=orthogonalEdgeStyle;rounded=0;orthogonalLoop=1;jettySize=auto;html=1;" parent="1" source="xV7rPPbxMvEB-hkKfdRj-23" edge="1">
          <mxGeometry relative="1" as="geometry">
            <mxPoint x="2587.25" y="515" as="targetPoint" />
          </mxGeometry>
        </mxCell>
        <mxCell id="xV7rPPbxMvEB-hkKfdRj-23" value="Error?" style="rhombus;whiteSpace=wrap;html=1;" parent="1" vertex="1">
          <mxGeometry x="2637.25" y="475" width="100" height="80" as="geometry" />
        </mxCell>
        <mxCell id="xV7rPPbxMvEB-hkKfdRj-72" style="edgeStyle=orthogonalEdgeStyle;rounded=0;orthogonalLoop=1;jettySize=auto;html=1;entryX=0.5;entryY=0;entryDx=0;entryDy=0;" parent="1" source="xV7rPPbxMvEB-hkKfdRj-27" target="xV7rPPbxMvEB-hkKfdRj-11" edge="1">
          <mxGeometry relative="1" as="geometry">
            <mxPoint x="2577.25" y="513" as="targetPoint" />
            <Array as="points">
              <mxPoint x="2587.25" y="603" />
              <mxPoint x="2587.25" y="263" />
              <mxPoint x="2687.25" y="263" />
            </Array>
          </mxGeometry>
        </mxCell>
        <mxCell id="xV7rPPbxMvEB-hkKfdRj-27" value="SendDataToThingsboard()" style="whiteSpace=wrap;html=1;" parent="1" vertex="1">
          <mxGeometry x="2607.25" y="583" width="160" height="40" as="geometry" />
        </mxCell>
        <mxCell id="xV7rPPbxMvEB-hkKfdRj-28" value="False" style="text;html=1;align=center;verticalAlign=middle;resizable=0;points=[];autosize=1;strokeColor=none;fillColor=none;" parent="1" vertex="1">
          <mxGeometry x="2684.75" y="553" width="50" height="30" as="geometry" />
        </mxCell>
        <mxCell id="xV7rPPbxMvEB-hkKfdRj-91" style="edgeStyle=orthogonalEdgeStyle;rounded=0;orthogonalLoop=1;jettySize=auto;html=1;entryX=0;entryY=0.5;entryDx=0;entryDy=0;fontSize=14;" parent="1" source="xV7rPPbxMvEB-hkKfdRj-32" target="xV7rPPbxMvEB-hkKfdRj-90" edge="1">
          <mxGeometry relative="1" as="geometry" />
        </mxCell>
        <mxCell id="xV7rPPbxMvEB-hkKfdRj-93" value="" style="edgeStyle=orthogonalEdgeStyle;rounded=0;orthogonalLoop=1;jettySize=auto;html=1;fontSize=14;" parent="1" source="xV7rPPbxMvEB-hkKfdRj-32" target="xV7rPPbxMvEB-hkKfdRj-92" edge="1">
          <mxGeometry relative="1" as="geometry" />
        </mxCell>
        <mxCell id="xV7rPPbxMvEB-hkKfdRj-32" value="1s interval?" style="rhombus;whiteSpace=wrap;html=1;" parent="1" vertex="1">
          <mxGeometry x="2210" y="173" width="100" height="80" as="geometry" />
        </mxCell>
        <mxCell id="xV7rPPbxMvEB-hkKfdRj-36" value="True" style="text;html=1;align=center;verticalAlign=middle;resizable=0;points=[];autosize=1;strokeColor=none;fillColor=none;" parent="1" vertex="1">
          <mxGeometry x="2260" y="248.27" width="50" height="30" as="geometry" />
        </mxCell>
        <mxCell id="xV7rPPbxMvEB-hkKfdRj-39" value="False" style="text;html=1;align=center;verticalAlign=middle;resizable=0;points=[];autosize=1;strokeColor=none;fillColor=none;" parent="1" vertex="1">
          <mxGeometry x="2305.5" y="183" width="50" height="30" as="geometry" />
        </mxCell>
        <mxCell id="xV7rPPbxMvEB-hkKfdRj-48" value="True" style="text;html=1;align=center;verticalAlign=middle;resizable=0;points=[];autosize=1;strokeColor=none;fillColor=none;" parent="1" vertex="1">
          <mxGeometry x="2684.75" y="363.5" width="50" height="30" as="geometry" />
        </mxCell>
        <mxCell id="xV7rPPbxMvEB-hkKfdRj-51" value="False" style="text;html=1;align=center;verticalAlign=middle;resizable=0;points=[];autosize=1;strokeColor=none;fillColor=none;" parent="1" vertex="1">
          <mxGeometry x="2597.25" y="322" width="50" height="30" as="geometry" />
        </mxCell>
        <mxCell id="xV7rPPbxMvEB-hkKfdRj-54" value="True" style="text;html=1;align=center;verticalAlign=middle;resizable=0;points=[];autosize=1;strokeColor=none;fillColor=none;" parent="1" vertex="1">
          <mxGeometry x="2589.75" y="487" width="50" height="30" as="geometry" />
        </mxCell>
        <mxCell id="xV7rPPbxMvEB-hkKfdRj-64" value="" style="edgeStyle=orthogonalEdgeStyle;rounded=0;orthogonalLoop=1;jettySize=auto;html=1;" parent="1" source="xV7rPPbxMvEB-hkKfdRj-55" target="xV7rPPbxMvEB-hkKfdRj-57" edge="1">
          <mxGeometry relative="1" as="geometry" />
        </mxCell>
        <mxCell id="xV7rPPbxMvEB-hkKfdRj-81" style="edgeStyle=orthogonalEdgeStyle;rounded=0;orthogonalLoop=1;jettySize=auto;html=1;" parent="1" source="xV7rPPbxMvEB-hkKfdRj-55" edge="1">
          <mxGeometry relative="1" as="geometry">
            <mxPoint x="3154" y="323" as="targetPoint" />
          </mxGeometry>
        </mxCell>
        <mxCell id="xV7rPPbxMvEB-hkKfdRj-55" value="RPC call from ThingsBoard?" style="rhombus;whiteSpace=wrap;html=1;" parent="1" vertex="1">
          <mxGeometry x="2994" y="285.5" width="120" height="75" as="geometry" />
        </mxCell>
        <mxCell id="xV7rPPbxMvEB-hkKfdRj-66" value="" style="edgeStyle=orthogonalEdgeStyle;rounded=0;orthogonalLoop=1;jettySize=auto;html=1;" parent="1" source="xV7rPPbxMvEB-hkKfdRj-57" target="xV7rPPbxMvEB-hkKfdRj-65" edge="1">
          <mxGeometry relative="1" as="geometry" />
        </mxCell>
        <mxCell id="xV7rPPbxMvEB-hkKfdRj-57" value="Deserialize JSON message from ThingsBoard" style="whiteSpace=wrap;html=1;" parent="1" vertex="1">
          <mxGeometry x="2974" y="403" width="160" height="50" as="geometry" />
        </mxCell>
        <mxCell id="xV7rPPbxMvEB-hkKfdRj-68" value="" style="edgeStyle=orthogonalEdgeStyle;rounded=0;orthogonalLoop=1;jettySize=auto;html=1;" parent="1" source="xV7rPPbxMvEB-hkKfdRj-65" target="xV7rPPbxMvEB-hkKfdRj-67" edge="1">
          <mxGeometry relative="1" as="geometry" />
        </mxCell>
        <mxCell id="xV7rPPbxMvEB-hkKfdRj-65" value="Send data to Arduino Mega" style="whiteSpace=wrap;html=1;" parent="1" vertex="1">
          <mxGeometry x="2974" y="498" width="160" height="40" as="geometry" />
        </mxCell>
        <mxCell id="xV7rPPbxMvEB-hkKfdRj-73" style="edgeStyle=orthogonalEdgeStyle;rounded=0;orthogonalLoop=1;jettySize=auto;html=1;entryX=0.5;entryY=0;entryDx=0;entryDy=0;" parent="1" source="xV7rPPbxMvEB-hkKfdRj-67" target="xV7rPPbxMvEB-hkKfdRj-55" edge="1">
          <mxGeometry relative="1" as="geometry">
            <Array as="points">
              <mxPoint x="3154" y="603" />
              <mxPoint x="3154" y="263" />
              <mxPoint x="3054" y="263" />
            </Array>
          </mxGeometry>
        </mxCell>
        <mxCell id="xV7rPPbxMvEB-hkKfdRj-67" value="Respond to ThingsBoard&amp;nbsp;" style="whiteSpace=wrap;html=1;" parent="1" vertex="1">
          <mxGeometry x="2974" y="583" width="160" height="40" as="geometry" />
        </mxCell>
        <mxCell id="xV7rPPbxMvEB-hkKfdRj-79" value="True" style="text;html=1;align=center;verticalAlign=middle;resizable=0;points=[];autosize=1;strokeColor=none;fillColor=none;" parent="1" vertex="1">
          <mxGeometry x="3051" y="369" width="50" height="30" as="geometry" />
        </mxCell>
        <mxCell id="xV7rPPbxMvEB-hkKfdRj-82" value="False" style="text;html=1;align=center;verticalAlign=middle;resizable=0;points=[];autosize=1;strokeColor=none;fillColor=none;" parent="1" vertex="1">
          <mxGeometry x="3101" y="292" width="50" height="30" as="geometry" />
        </mxCell>
        <mxCell id="xV7rPPbxMvEB-hkKfdRj-83" value="" style="rounded=0;whiteSpace=wrap;html=1;dashed=1;fillColor=none;" parent="1" vertex="1">
          <mxGeometry x="2570" y="253" width="210" height="390" as="geometry" />
        </mxCell>
        <mxCell id="xV7rPPbxMvEB-hkKfdRj-84" value="&lt;font style=&quot;font-size: 14px;&quot;&gt;loop()&lt;/font&gt;" style="text;html=1;align=center;verticalAlign=middle;resizable=0;points=[];autosize=1;strokeColor=none;fillColor=none;" parent="1" vertex="1">
          <mxGeometry x="2657.25" y="215.5" width="60" height="30" as="geometry" />
        </mxCell>
        <mxCell id="xV7rPPbxMvEB-hkKfdRj-85" value="" style="rounded=0;whiteSpace=wrap;html=1;dashed=1;fillColor=none;" parent="1" vertex="1">
          <mxGeometry x="2960" y="253" width="210" height="390" as="geometry" />
        </mxCell>
        <mxCell id="xV7rPPbxMvEB-hkKfdRj-86" value="&lt;font style=&quot;font-size: 14px;&quot;&gt;callback_sub()&lt;/font&gt;" style="text;html=1;align=center;verticalAlign=middle;resizable=0;points=[];autosize=1;strokeColor=none;fillColor=none;" parent="1" vertex="1">
          <mxGeometry x="2999" y="215.5" width="110" height="30" as="geometry" />
        </mxCell>
        <mxCell id="xV7rPPbxMvEB-hkKfdRj-89" style="edgeStyle=orthogonalEdgeStyle;rounded=0;orthogonalLoop=1;jettySize=auto;html=1;entryX=0.5;entryY=0;entryDx=0;entryDy=0;fontSize=14;" parent="1" source="xV7rPPbxMvEB-hkKfdRj-87" target="xV7rPPbxMvEB-hkKfdRj-32" edge="1">
          <mxGeometry relative="1" as="geometry" />
        </mxCell>
        <mxCell id="xV7rPPbxMvEB-hkKfdRj-87" value="Begin" style="ellipse;whiteSpace=wrap;html=1;" parent="1" vertex="1">
          <mxGeometry x="2220" y="113.59" width="80" height="40" as="geometry" />
        </mxCell>
        <mxCell id="xV7rPPbxMvEB-hkKfdRj-90" value="Return" style="ellipse;whiteSpace=wrap;html=1;" parent="1" vertex="1">
          <mxGeometry x="2400" y="193" width="80" height="40" as="geometry" />
        </mxCell>
        <mxCell id="xV7rPPbxMvEB-hkKfdRj-95" value="" style="edgeStyle=orthogonalEdgeStyle;rounded=0;orthogonalLoop=1;jettySize=auto;html=1;fontSize=14;" parent="1" source="xV7rPPbxMvEB-hkKfdRj-92" target="xV7rPPbxMvEB-hkKfdRj-94" edge="1">
          <mxGeometry relative="1" as="geometry" />
        </mxCell>
        <mxCell id="xV7rPPbxMvEB-hkKfdRj-92" value="Publish sensor values to topic:&lt;br&gt;v1/devices/me/telemetry" style="rounded=0;whiteSpace=wrap;html=1;" parent="1" vertex="1">
          <mxGeometry x="2160" y="277.25" width="200" height="59.5" as="geometry" />
        </mxCell>
        <mxCell id="xV7rPPbxMvEB-hkKfdRj-96" style="edgeStyle=orthogonalEdgeStyle;rounded=0;orthogonalLoop=1;jettySize=auto;html=1;entryX=0.5;entryY=1;entryDx=0;entryDy=0;fontSize=14;" parent="1" source="xV7rPPbxMvEB-hkKfdRj-94" target="xV7rPPbxMvEB-hkKfdRj-90" edge="1">
          <mxGeometry relative="1" as="geometry" />
        </mxCell>
        <mxCell id="xV7rPPbxMvEB-hkKfdRj-94" value="Publish device state to topic:&lt;br&gt;v1/devices/me/attributes" style="rounded=0;whiteSpace=wrap;html=1;" parent="1" vertex="1">
          <mxGeometry x="2160" y="362.64" width="200" height="59.5" as="geometry" />
        </mxCell>
        <mxCell id="-SBL9OdrZuj_oVLrtS1c-3" value="" style="edgeStyle=orthogonalEdgeStyle;rounded=0;orthogonalLoop=1;jettySize=auto;html=1;" parent="1" source="-SBL9OdrZuj_oVLrtS1c-1" target="-SBL9OdrZuj_oVLrtS1c-2" edge="1">
          <mxGeometry relative="1" as="geometry" />
        </mxCell>
        <mxCell id="-SBL9OdrZuj_oVLrtS1c-1" value="Begin" style="ellipse;whiteSpace=wrap;html=1;" parent="1" vertex="1">
          <mxGeometry x="2520" y="893" width="80" height="40" as="geometry" />
        </mxCell>
        <mxCell id="-SBL9OdrZuj_oVLrtS1c-5" value="" style="edgeStyle=orthogonalEdgeStyle;rounded=0;orthogonalLoop=1;jettySize=auto;html=1;" parent="1" source="-SBL9OdrZuj_oVLrtS1c-2" target="-SBL9OdrZuj_oVLrtS1c-4" edge="1">
          <mxGeometry relative="1" as="geometry" />
        </mxCell>
        <mxCell id="-SBL9OdrZuj_oVLrtS1c-2" value="Initialize camera" style="rounded=0;whiteSpace=wrap;html=1;" parent="1" vertex="1">
          <mxGeometry x="2480" y="950" width="160" height="40" as="geometry" />
        </mxCell>
        <mxCell id="-SBL9OdrZuj_oVLrtS1c-7" value="" style="edgeStyle=orthogonalEdgeStyle;rounded=0;orthogonalLoop=1;jettySize=auto;html=1;" parent="1" source="-SBL9OdrZuj_oVLrtS1c-4" target="-SBL9OdrZuj_oVLrtS1c-6" edge="1">
          <mxGeometry relative="1" as="geometry" />
        </mxCell>
        <mxCell id="-SBL9OdrZuj_oVLrtS1c-4" value="Connect to Wifi" style="rounded=0;whiteSpace=wrap;html=1;" parent="1" vertex="1">
          <mxGeometry x="2480" y="1010" width="160" height="40" as="geometry" />
        </mxCell>
        <mxCell id="-SBL9OdrZuj_oVLrtS1c-9" value="" style="edgeStyle=orthogonalEdgeStyle;rounded=0;orthogonalLoop=1;jettySize=auto;html=1;" parent="1" source="-SBL9OdrZuj_oVLrtS1c-6" target="-SBL9OdrZuj_oVLrtS1c-8" edge="1">
          <mxGeometry relative="1" as="geometry" />
        </mxCell>
        <mxCell id="-SBL9OdrZuj_oVLrtS1c-6" value="Connect to ThingsBoard" style="rounded=0;whiteSpace=wrap;html=1;" parent="1" vertex="1">
          <mxGeometry x="2480" y="1070" width="160" height="40" as="geometry" />
        </mxCell>
        <mxCell id="-SBL9OdrZuj_oVLrtS1c-11" value="" style="edgeStyle=orthogonalEdgeStyle;rounded=0;orthogonalLoop=1;jettySize=auto;html=1;" parent="1" source="-SBL9OdrZuj_oVLrtS1c-8" target="-SBL9OdrZuj_oVLrtS1c-10" edge="1">
          <mxGeometry relative="1" as="geometry" />
        </mxCell>
        <mxCell id="-SBL9OdrZuj_oVLrtS1c-8" value="Start Camera server" style="rounded=0;whiteSpace=wrap;html=1;" parent="1" vertex="1">
          <mxGeometry x="2480" y="1125" width="160" height="40" as="geometry" />
        </mxCell>
        <mxCell id="-SBL9OdrZuj_oVLrtS1c-13" value="" style="edgeStyle=orthogonalEdgeStyle;rounded=0;orthogonalLoop=1;jettySize=auto;html=1;" parent="1" source="-SBL9OdrZuj_oVLrtS1c-10" target="-SBL9OdrZuj_oVLrtS1c-12" edge="1">
          <mxGeometry relative="1" as="geometry" />
        </mxCell>
        <mxCell id="-SBL9OdrZuj_oVLrtS1c-10" value="Face Recognition" style="rounded=0;whiteSpace=wrap;html=1;" parent="1" vertex="1">
          <mxGeometry x="2480" y="1180" width="160" height="40" as="geometry" />
        </mxCell>
        <mxCell id="-SBL9OdrZuj_oVLrtS1c-15" value="" style="edgeStyle=orthogonalEdgeStyle;rounded=0;orthogonalLoop=1;jettySize=auto;html=1;" parent="1" source="-SBL9OdrZuj_oVLrtS1c-12" target="-SBL9OdrZuj_oVLrtS1c-14" edge="1">
          <mxGeometry relative="1" as="geometry" />
        </mxCell>
        <mxCell id="-SBL9OdrZuj_oVLrtS1c-23" style="edgeStyle=orthogonalEdgeStyle;rounded=0;orthogonalLoop=1;jettySize=auto;html=1;entryX=0;entryY=0.5;entryDx=0;entryDy=0;" parent="1" source="-SBL9OdrZuj_oVLrtS1c-12" target="-SBL9OdrZuj_oVLrtS1c-10" edge="1">
          <mxGeometry relative="1" as="geometry">
            <Array as="points">
              <mxPoint x="2560" y="1340" />
              <mxPoint x="2460" y="1340" />
              <mxPoint x="2460" y="1200" />
            </Array>
          </mxGeometry>
        </mxCell>
        <mxCell id="-SBL9OdrZuj_oVLrtS1c-12" value="Face&lt;br&gt;matched?" style="rhombus;whiteSpace=wrap;html=1;" parent="1" vertex="1">
          <mxGeometry x="2510" y="1240" width="100" height="80" as="geometry" />
        </mxCell>
        <mxCell id="-SBL9OdrZuj_oVLrtS1c-31" value="" style="edgeStyle=orthogonalEdgeStyle;rounded=0;orthogonalLoop=1;jettySize=auto;html=1;" parent="1" source="-SBL9OdrZuj_oVLrtS1c-14" target="-SBL9OdrZuj_oVLrtS1c-30" edge="1">
          <mxGeometry relative="1" as="geometry" />
        </mxCell>
        <mxCell id="-SBL9OdrZuj_oVLrtS1c-14" value="Send signal to Arduino Mega to open door" style="rounded=0;whiteSpace=wrap;html=1;" parent="1" vertex="1">
          <mxGeometry x="2650" y="1245" width="90" height="70" as="geometry" />
        </mxCell>
        <mxCell id="-SBL9OdrZuj_oVLrtS1c-16" value="True" style="text;html=1;align=center;verticalAlign=middle;resizable=0;points=[];autosize=1;strokeColor=none;fillColor=none;" parent="1" vertex="1">
          <mxGeometry x="2600" y="1250" width="50" height="30" as="geometry" />
        </mxCell>
        <mxCell id="-SBL9OdrZuj_oVLrtS1c-21" value="" style="edgeStyle=orthogonalEdgeStyle;rounded=0;orthogonalLoop=1;jettySize=auto;html=1;" parent="1" source="-SBL9OdrZuj_oVLrtS1c-18" target="-SBL9OdrZuj_oVLrtS1c-20" edge="1">
          <mxGeometry relative="1" as="geometry" />
        </mxCell>
        <mxCell id="-SBL9OdrZuj_oVLrtS1c-26" style="edgeStyle=orthogonalEdgeStyle;rounded=0;orthogonalLoop=1;jettySize=auto;html=1;entryX=0;entryY=0.5;entryDx=0;entryDy=0;" parent="1" source="-SBL9OdrZuj_oVLrtS1c-18" target="-SBL9OdrZuj_oVLrtS1c-10" edge="1">
          <mxGeometry relative="1" as="geometry">
            <Array as="points">
              <mxPoint x="2937" y="1340" />
              <mxPoint x="2460" y="1340" />
              <mxPoint x="2460" y="1200" />
            </Array>
          </mxGeometry>
        </mxCell>
        <mxCell id="-SBL9OdrZuj_oVLrtS1c-18" value="10s interval?" style="rhombus;whiteSpace=wrap;html=1;" parent="1" vertex="1">
          <mxGeometry x="2887.25" y="1240" width="100" height="80" as="geometry" />
        </mxCell>
        <mxCell id="ziZAyYgAh9MztOyzgz17-59" style="edgeStyle=orthogonalEdgeStyle;rounded=0;orthogonalLoop=1;jettySize=auto;html=1;entryX=0;entryY=0.5;entryDx=0;entryDy=0;fontSize=13;" parent="1" source="-SBL9OdrZuj_oVLrtS1c-20" target="-SBL9OdrZuj_oVLrtS1c-10" edge="1">
          <mxGeometry relative="1" as="geometry">
            <Array as="points">
              <mxPoint x="3070" y="1340" />
              <mxPoint x="2460" y="1340" />
              <mxPoint x="2460" y="1200" />
            </Array>
          </mxGeometry>
        </mxCell>
        <mxCell id="-SBL9OdrZuj_oVLrtS1c-20" value="Send signal to Arduino Mega to open door" style="rounded=0;whiteSpace=wrap;html=1;" parent="1" vertex="1">
          <mxGeometry x="3025" y="1245" width="90" height="70" as="geometry" />
        </mxCell>
        <mxCell id="-SBL9OdrZuj_oVLrtS1c-22" value="True" style="text;html=1;align=center;verticalAlign=middle;resizable=0;points=[];autosize=1;strokeColor=none;fillColor=none;" parent="1" vertex="1">
          <mxGeometry x="2974" y="1250" width="50" height="30" as="geometry" />
        </mxCell>
        <mxCell id="-SBL9OdrZuj_oVLrtS1c-27" value="False" style="text;html=1;align=center;verticalAlign=middle;resizable=0;points=[];autosize=1;strokeColor=none;fillColor=none;" parent="1" vertex="1">
          <mxGeometry x="2887.25" y="1308" width="50" height="30" as="geometry" />
        </mxCell>
        <mxCell id="-SBL9OdrZuj_oVLrtS1c-29" value="False" style="text;html=1;align=center;verticalAlign=middle;resizable=0;points=[];autosize=1;strokeColor=none;fillColor=none;" parent="1" vertex="1">
          <mxGeometry x="2510" y="1310" width="50" height="30" as="geometry" />
        </mxCell>
        <mxCell id="-SBL9OdrZuj_oVLrtS1c-33" style="edgeStyle=orthogonalEdgeStyle;rounded=0;orthogonalLoop=1;jettySize=auto;html=1;entryX=0;entryY=0.5;entryDx=0;entryDy=0;" parent="1" source="-SBL9OdrZuj_oVLrtS1c-30" target="-SBL9OdrZuj_oVLrtS1c-18" edge="1">
          <mxGeometry relative="1" as="geometry" />
        </mxCell>
        <mxCell id="-SBL9OdrZuj_oVLrtS1c-30" value="Send data to ThingsBoard" style="rounded=0;whiteSpace=wrap;html=1;" parent="1" vertex="1">
          <mxGeometry x="2760" y="1260" width="110" height="40" as="geometry" />
        </mxCell>
        <mxCell id="ziZAyYgAh9MztOyzgz17-60" value="&lt;span style=&quot;font-size: 13px;&quot;&gt;esp_camera_init()&lt;/span&gt;" style="text;html=1;align=center;verticalAlign=middle;resizable=0;points=[];autosize=1;strokeColor=none;fillColor=none;fontSize=17;" parent="1" vertex="1">
          <mxGeometry x="3979.720328638498" y="86.00590361445784" width="130" height="30" as="geometry" />
        </mxCell>
        <mxCell id="ziZAyYgAh9MztOyzgz17-80" style="edgeStyle=orthogonalEdgeStyle;rounded=0;orthogonalLoop=1;jettySize=auto;html=1;entryX=1;entryY=0.5;entryDx=0;entryDy=0;fontSize=13;" parent="1" source="ziZAyYgAh9MztOyzgz17-57" target="ziZAyYgAh9MztOyzgz17-78" edge="1">
          <mxGeometry relative="1" as="geometry">
            <Array as="points">
              <mxPoint x="4044.39" y="195" />
            </Array>
          </mxGeometry>
        </mxCell>
        <mxCell id="ziZAyYgAh9MztOyzgz17-57" value="Initialize camera" style="rounded=0;whiteSpace=wrap;html=1;" parent="1" vertex="1">
          <mxGeometry x="3978.62338028169" y="116.00385542168675" width="132.20657276995303" height="37.59036144578313" as="geometry" />
        </mxCell>
        <mxCell id="ziZAyYgAh9MztOyzgz17-58" value="" style="edgeStyle=orthogonalEdgeStyle;rounded=0;orthogonalLoop=1;jettySize=auto;html=1;fontSize=13;" parent="1" source="ziZAyYgAh9MztOyzgz17-4" target="ziZAyYgAh9MztOyzgz17-57" edge="1">
          <mxGeometry relative="1" as="geometry" />
        </mxCell>
        <mxCell id="ziZAyYgAh9MztOyzgz17-4" value="Configure camera" style="rounded=0;whiteSpace=wrap;html=1;" parent="1" vertex="1">
          <mxGeometry x="3391.95338028169" y="116.00385542168675" width="132.20657276995303" height="37.59036144578313" as="geometry" />
        </mxCell>
        <mxCell id="ziZAyYgAh9MztOyzgz17-45" style="edgeStyle=orthogonalEdgeStyle;rounded=0;orthogonalLoop=1;jettySize=auto;html=1;entryX=0;entryY=0.5;entryDx=0;entryDy=0;fontSize=13;" parent="1" source="ziZAyYgAh9MztOyzgz17-44" target="ziZAyYgAh9MztOyzgz17-4" edge="1">
          <mxGeometry relative="1" as="geometry" />
        </mxCell>
        <mxCell id="ziZAyYgAh9MztOyzgz17-44" value="&lt;font style=&quot;font-size: 13px;&quot;&gt;camera_pins.h&lt;/font&gt;" style="text;html=1;align=center;verticalAlign=middle;resizable=0;points=[];autosize=1;strokeColor=none;fillColor=none;fontSize=17;" parent="1" vertex="1">
          <mxGeometry x="3311.0003286384976" y="78.99590361445783" width="110" height="30" as="geometry" />
        </mxCell>
        <mxCell id="ziZAyYgAh9MztOyzgz17-35" value="" style="edgeStyle=orthogonalEdgeStyle;rounded=0;orthogonalLoop=1;jettySize=auto;html=1;fontSize=17;" parent="1" source="ziZAyYgAh9MztOyzgz17-2" target="ziZAyYgAh9MztOyzgz17-4" edge="1">
          <mxGeometry relative="1" as="geometry" />
        </mxCell>
        <mxCell id="ziZAyYgAh9MztOyzgz17-55" value="&lt;font style=&quot;font-size: 15px;&quot;&gt;esp32-cam libraries&lt;/font&gt;" style="rounded=0;whiteSpace=wrap;html=1;fillColor=none;dashed=1;" parent="1" vertex="1">
          <mxGeometry x="3898.056448812225" y="6" width="293.3332244061126" height="36.77108433734939" as="geometry" />
        </mxCell>
        <mxCell id="ziZAyYgAh9MztOyzgz17-31" value="" style="rounded=0;whiteSpace=wrap;html=1;fillColor=none;strokeWidth=1;dashed=1;dashPattern=1 2;" parent="1" vertex="1">
          <mxGeometry x="3604.72" y="6" width="293.33" height="874" as="geometry" />
        </mxCell>
        <mxCell id="ziZAyYgAh9MztOyzgz17-32" value="&lt;font style=&quot;font-size: 15px;&quot;&gt;esp32_cam.ino&lt;/font&gt;" style="rounded=0;whiteSpace=wrap;html=1;fillColor=none;dashed=1;" parent="1" vertex="1">
          <mxGeometry x="3311.39" y="6" width="293.3332244061126" height="36.77108433734939" as="geometry" />
        </mxCell>
        <mxCell id="ziZAyYgAh9MztOyzgz17-33" value="&lt;font style=&quot;font-size: 15px;&quot;&gt;app_httpd.cpp&lt;/font&gt;" style="rounded=0;whiteSpace=wrap;html=1;fillColor=none;dashed=1;" parent="1" vertex="1">
          <mxGeometry x="3604.723224406113" y="6" width="293.3332244061126" height="36.77108433734939" as="geometry" />
        </mxCell>
        <mxCell id="ziZAyYgAh9MztOyzgz17-81" value="" style="edgeStyle=orthogonalEdgeStyle;rounded=0;orthogonalLoop=1;jettySize=auto;html=1;fontSize=13;" parent="1" source="ziZAyYgAh9MztOyzgz17-78" target="ziZAyYgAh9MztOyzgz17-79" edge="1">
          <mxGeometry relative="1" as="geometry" />
        </mxCell>
        <mxCell id="ziZAyYgAh9MztOyzgz17-78" value="Connect to Wifi" style="rounded=0;whiteSpace=wrap;html=1;" parent="1" vertex="1">
          <mxGeometry x="3391.953350365059" y="175.99813036762433" width="132.2065236759944" height="36.77108433734939" as="geometry" />
        </mxCell>
        <mxCell id="ziZAyYgAh9MztOyzgz17-93" style="edgeStyle=orthogonalEdgeStyle;rounded=0;orthogonalLoop=1;jettySize=auto;html=1;fontSize=13;" parent="1" source="ziZAyYgAh9MztOyzgz17-79" target="ziZAyYgAh9MztOyzgz17-92" edge="1">
          <mxGeometry relative="1" as="geometry" />
        </mxCell>
        <mxCell id="ziZAyYgAh9MztOyzgz17-79" value="Connect to ThingsBoard&amp;nbsp;" style="rounded=0;whiteSpace=wrap;html=1;" parent="1" vertex="1">
          <mxGeometry x="3375.1" y="247.62" width="165.92" height="36.77" as="geometry" />
        </mxCell>
        <mxCell id="ziZAyYgAh9MztOyzgz17-97" style="edgeStyle=orthogonalEdgeStyle;rounded=0;orthogonalLoop=1;jettySize=auto;html=1;entryX=0;entryY=0.5;entryDx=0;entryDy=0;fontSize=13;" parent="1" source="ziZAyYgAh9MztOyzgz17-92" target="ziZAyYgAh9MztOyzgz17-96" edge="1">
          <mxGeometry relative="1" as="geometry" />
        </mxCell>
        <mxCell id="ziZAyYgAh9MztOyzgz17-92" value="Start Camera Server" style="rounded=0;whiteSpace=wrap;html=1;" parent="1" vertex="1">
          <mxGeometry x="3679.5098633012894" y="247.61666666666667" width="143.76994661204597" height="36.770730769230774" as="geometry" />
        </mxCell>
        <mxCell id="ziZAyYgAh9MztOyzgz17-94" value="&lt;span style=&quot;font-size: 13px;&quot;&gt;startCameraServer()&lt;/span&gt;" style="text;html=1;align=center;verticalAlign=middle;resizable=0;points=[];autosize=1;strokeColor=none;fillColor=none;fontSize=17;" parent="1" vertex="1">
          <mxGeometry x="3681.390191241541" y="218.26650571516836" width="140" height="30" as="geometry" />
        </mxCell>
        <mxCell id="ziZAyYgAh9MztOyzgz17-109" style="edgeStyle=orthogonalEdgeStyle;rounded=0;orthogonalLoop=1;jettySize=auto;html=1;entryX=1;entryY=0.5;entryDx=0;entryDy=0;fontFamily=Helvetica;fontSize=13;fontColor=#000000;" parent="1" source="ziZAyYgAh9MztOyzgz17-96" target="ziZAyYgAh9MztOyzgz17-108" edge="1">
          <mxGeometry relative="1" as="geometry">
            <Array as="points">
              <mxPoint x="4044.389727805729" y="344.45897435897433" />
            </Array>
          </mxGeometry>
        </mxCell>
        <mxCell id="ziZAyYgAh9MztOyzgz17-96" value="Deploy Camera Server" style="rounded=0;whiteSpace=wrap;html=1;" parent="1" vertex="1">
          <mxGeometry x="3978.62313250938" y="247.62043805993204" width="132.2065236759944" height="36.77108433734939" as="geometry" />
        </mxCell>
        <mxCell id="ziZAyYgAh9MztOyzgz17-99" value="&lt;span style=&quot;background-color: rgb(255, 255, 255);&quot;&gt;httpd_register_uri_handler()&lt;/span&gt;" style="text;html=1;align=center;verticalAlign=middle;resizable=0;points=[];autosize=1;strokeColor=none;fillColor=none;fontSize=13;fontFamily=Helvetica;fontColor=#000000;" parent="1" vertex="1">
          <mxGeometry x="3954.719761104038" y="218.2705128205128" width="180" height="30" as="geometry" />
        </mxCell>
        <mxCell id="ziZAyYgAh9MztOyzgz17-101" style="edgeStyle=orthogonalEdgeStyle;rounded=0;orthogonalLoop=1;jettySize=auto;html=1;entryX=1;entryY=0.5;entryDx=0;entryDy=0;fontFamily=Helvetica;fontSize=13;fontColor=#000000;" parent="1" source="ziZAyYgAh9MztOyzgz17-100" target="ziZAyYgAh9MztOyzgz17-96" edge="1">
          <mxGeometry relative="1" as="geometry" />
        </mxCell>
        <mxCell id="ziZAyYgAh9MztOyzgz17-100" value="&lt;font style=&quot;font-size: 13px;&quot;&gt;camera_index.h&lt;/font&gt;" style="text;html=1;align=center;verticalAlign=middle;resizable=0;points=[];autosize=1;strokeColor=none;fillColor=none;fontSize=17;" parent="1" vertex="1">
          <mxGeometry x="4076.3900445611357" y="295.8708646895273" width="120" height="30" as="geometry" />
        </mxCell>
        <mxCell id="ziZAyYgAh9MztOyzgz17-126" style="edgeStyle=orthogonalEdgeStyle;rounded=0;orthogonalLoop=1;jettySize=auto;html=1;entryX=0;entryY=0.5;entryDx=0;entryDy=0;fontFamily=Helvetica;fontSize=15;fontColor=#000000;" parent="1" source="ziZAyYgAh9MztOyzgz17-102" target="ziZAyYgAh9MztOyzgz17-123" edge="1">
          <mxGeometry relative="1" as="geometry">
            <Array as="points">
              <mxPoint x="3751.39" y="508" />
            </Array>
          </mxGeometry>
        </mxCell>
        <mxCell id="ziZAyYgAh9MztOyzgz17-102" value="Run face recognition" style="rounded=0;whiteSpace=wrap;html=1;" parent="1" vertex="1">
          <mxGeometry x="3679.5098633012894" y="436.0005128205128" width="143.76994661204597" height="36.770730769230774" as="geometry" />
        </mxCell>
        <mxCell id="ziZAyYgAh9MztOyzgz17-104" value="&lt;span style=&quot;font-size: 13px;&quot;&gt;run_face_recognition()&lt;/span&gt;" style="text;html=1;align=center;verticalAlign=middle;resizable=0;points=[];autosize=1;strokeColor=none;fillColor=none;fontSize=17;" parent="1" vertex="1">
          <mxGeometry x="3676.3901002625553" y="405.99573648439906" width="150" height="30" as="geometry" />
        </mxCell>
        <mxCell id="ziZAyYgAh9MztOyzgz17-107" value="&lt;span style=&quot;background-color: rgb(255, 255, 255);&quot;&gt;stream_handler()&lt;/span&gt;" style="text;html=1;align=center;verticalAlign=middle;resizable=0;points=[];autosize=1;strokeColor=none;fillColor=none;fontSize=13;fontFamily=Helvetica;fontColor=#000000;" parent="1" vertex="1">
          <mxGeometry x="3693.8898579613797" y="296.5269230769231" width="120" height="30" as="geometry" />
        </mxCell>
        <mxCell id="ziZAyYgAh9MztOyzgz17-121" style="edgeStyle=orthogonalEdgeStyle;rounded=0;orthogonalLoop=1;jettySize=auto;html=1;entryX=0;entryY=0.5;entryDx=0;entryDy=0;fontFamily=Helvetica;fontSize=15;fontColor=#000000;" parent="1" source="ziZAyYgAh9MztOyzgz17-108" target="ziZAyYgAh9MztOyzgz17-116" edge="1">
          <mxGeometry relative="1" as="geometry">
            <Array as="points">
              <mxPoint x="3751.39" y="403" />
            </Array>
          </mxGeometry>
        </mxCell>
        <mxCell id="ziZAyYgAh9MztOyzgz17-108" value="Stream video" style="rounded=0;whiteSpace=wrap;html=1;" parent="1" vertex="1">
          <mxGeometry x="3679.5098633012894" y="325.8730769230769" width="143.76994661204597" height="36.770730769230774" as="geometry" />
        </mxCell>
        <mxCell id="ziZAyYgAh9MztOyzgz17-2" value="Begin" style="ellipse;whiteSpace=wrap;html=1;" parent="1" vertex="1">
          <mxGeometry x="3421.000906665185" y="56.0028078467717" width="74.10523563943899" height="36.77108433734939" as="geometry" />
        </mxCell>
        <mxCell id="ziZAyYgAh9MztOyzgz17-112" value="Draw face boxes" style="rounded=0;whiteSpace=wrap;html=1;" parent="1" vertex="1">
          <mxGeometry x="3679.5098633012894" y="546.0005128205128" width="143.76994661204597" height="36.770730769230774" as="geometry" />
        </mxCell>
        <mxCell id="ziZAyYgAh9MztOyzgz17-113" value="&lt;span style=&quot;font-size: 13px;&quot;&gt;draw_face_boxes()&lt;/span&gt;" style="text;html=1;align=center;verticalAlign=middle;resizable=0;points=[];autosize=1;strokeColor=none;fillColor=none;fontSize=17;" parent="1" vertex="1">
          <mxGeometry x="3686.3901002625553" y="515.995736484399" width="130" height="30" as="geometry" />
        </mxCell>
        <mxCell id="ziZAyYgAh9MztOyzgz17-122" style="edgeStyle=orthogonalEdgeStyle;rounded=0;orthogonalLoop=1;jettySize=auto;html=1;entryX=1;entryY=0.5;entryDx=0;entryDy=0;fontFamily=Helvetica;fontSize=15;fontColor=#000000;" parent="1" source="ziZAyYgAh9MztOyzgz17-116" target="ziZAyYgAh9MztOyzgz17-102" edge="1">
          <mxGeometry relative="1" as="geometry">
            <Array as="points">
              <mxPoint x="4044.39" y="454" />
            </Array>
          </mxGeometry>
        </mxCell>
        <mxCell id="ziZAyYgAh9MztOyzgz17-116" value="Detect face" style="rounded=0;whiteSpace=wrap;html=1;" parent="1" vertex="1">
          <mxGeometry x="3978.6131325093797" y="384.120438059932" width="132.2065236759944" height="36.77108433734939" as="geometry" />
        </mxCell>
        <mxCell id="ziZAyYgAh9MztOyzgz17-117" value="&lt;span style=&quot;font-size: 13px;&quot;&gt;face_detect()&lt;/span&gt;" style="text;html=1;align=center;verticalAlign=middle;resizable=0;points=[];autosize=1;strokeColor=none;fillColor=none;fontSize=17;" parent="1" vertex="1">
          <mxGeometry x="3994.720100262555" y="354.115736484399" width="100" height="30" as="geometry" />
        </mxCell>
        <mxCell id="ziZAyYgAh9MztOyzgz17-119" style="edgeStyle=orthogonalEdgeStyle;rounded=0;orthogonalLoop=1;jettySize=auto;html=1;entryX=1;entryY=0.5;entryDx=0;entryDy=0;fontFamily=Helvetica;fontSize=15;fontColor=#000000;" parent="1" source="ziZAyYgAh9MztOyzgz17-118" target="ziZAyYgAh9MztOyzgz17-116" edge="1">
          <mxGeometry relative="1" as="geometry" />
        </mxCell>
        <mxCell id="ziZAyYgAh9MztOyzgz17-118" value="&lt;font style=&quot;font-size: 13px;&quot;&gt;fd_forward.h&lt;/font&gt;" style="text;html=1;align=center;verticalAlign=middle;resizable=0;points=[];autosize=1;strokeColor=none;fillColor=none;fontSize=17;" parent="1" vertex="1">
          <mxGeometry x="4086.3900445611357" y="336.0008646895273" width="100" height="30" as="geometry" />
        </mxCell>
        <mxCell id="ziZAyYgAh9MztOyzgz17-127" style="edgeStyle=orthogonalEdgeStyle;rounded=0;orthogonalLoop=1;jettySize=auto;html=1;entryX=1;entryY=0.5;entryDx=0;entryDy=0;fontFamily=Helvetica;fontSize=15;fontColor=#000000;" parent="1" source="ziZAyYgAh9MztOyzgz17-123" target="ziZAyYgAh9MztOyzgz17-112" edge="1">
          <mxGeometry relative="1" as="geometry">
            <Array as="points">
              <mxPoint x="4044.39" y="564" />
            </Array>
          </mxGeometry>
        </mxCell>
        <mxCell id="ziZAyYgAh9MztOyzgz17-133" style="edgeStyle=orthogonalEdgeStyle;rounded=0;orthogonalLoop=1;jettySize=auto;html=1;entryX=1;entryY=0.5;entryDx=0;entryDy=0;fontFamily=Helvetica;fontSize=15;fontColor=#000000;" parent="1" source="ziZAyYgAh9MztOyzgz17-123" target="ziZAyYgAh9MztOyzgz17-132" edge="1">
          <mxGeometry relative="1" as="geometry">
            <Array as="points">
              <mxPoint x="4044.39" y="616" />
            </Array>
          </mxGeometry>
        </mxCell>
        <mxCell id="ziZAyYgAh9MztOyzgz17-123" value="Recognize face" style="rounded=0;whiteSpace=wrap;html=1;" parent="1" vertex="1">
          <mxGeometry x="3978.62313250938" y="489.220438059932" width="132.2065236759944" height="36.77108433734939" as="geometry" />
        </mxCell>
        <mxCell id="ziZAyYgAh9MztOyzgz17-124" value="&lt;span style=&quot;font-size: 13px;&quot;&gt;recognize_face()&lt;/span&gt;" style="text;html=1;align=center;verticalAlign=middle;resizable=0;points=[];autosize=1;strokeColor=none;fillColor=none;fontSize=17;" parent="1" vertex="1">
          <mxGeometry x="3984.720100262555" y="459.21573648439903" width="120" height="30" as="geometry" />
        </mxCell>
        <mxCell id="ziZAyYgAh9MztOyzgz17-129" style="edgeStyle=orthogonalEdgeStyle;rounded=0;orthogonalLoop=1;jettySize=auto;html=1;entryX=1;entryY=0.5;entryDx=0;entryDy=0;fontFamily=Helvetica;fontSize=15;fontColor=#000000;" parent="1" source="ziZAyYgAh9MztOyzgz17-128" target="ziZAyYgAh9MztOyzgz17-123" edge="1">
          <mxGeometry relative="1" as="geometry" />
        </mxCell>
        <mxCell id="ziZAyYgAh9MztOyzgz17-128" value="&lt;font style=&quot;font-size: 13px;&quot;&gt;fr_forward.h&lt;/font&gt;" style="text;html=1;align=center;verticalAlign=middle;resizable=0;points=[];autosize=1;strokeColor=none;fillColor=none;fontSize=17;" parent="1" vertex="1">
          <mxGeometry x="4091.3900445611357" y="439.3908646895273" width="90" height="30" as="geometry" />
        </mxCell>
        <mxCell id="ziZAyYgAh9MztOyzgz17-135" style="edgeStyle=orthogonalEdgeStyle;rounded=0;orthogonalLoop=1;jettySize=auto;html=1;entryX=0;entryY=0.5;entryDx=0;entryDy=0;fontFamily=Helvetica;fontSize=15;fontColor=#000000;" parent="1" source="ziZAyYgAh9MztOyzgz17-132" target="ziZAyYgAh9MztOyzgz17-102" edge="1">
          <mxGeometry relative="1" as="geometry">
            <Array as="points">
              <mxPoint x="3458.39" y="454" />
            </Array>
          </mxGeometry>
        </mxCell>
        <mxCell id="5S2iBS3wVlSxtZ1-8zax-3" value="" style="edgeStyle=orthogonalEdgeStyle;rounded=0;orthogonalLoop=1;jettySize=auto;html=1;" parent="1" source="ziZAyYgAh9MztOyzgz17-132" target="5S2iBS3wVlSxtZ1-8zax-1" edge="1">
          <mxGeometry relative="1" as="geometry" />
        </mxCell>
        <mxCell id="ziZAyYgAh9MztOyzgz17-132" value="matchFace?" style="rhombus;whiteSpace=wrap;html=1;" parent="1" vertex="1">
          <mxGeometry x="3408.0499999999997" y="576" width="100" height="80" as="geometry" />
        </mxCell>
        <mxCell id="ziZAyYgAh9MztOyzgz17-134" value="&lt;span style=&quot;font-size: 13px;&quot;&gt;matched_id, matchFace&lt;/span&gt;" style="text;html=1;align=center;verticalAlign=middle;resizable=0;points=[];autosize=1;strokeColor=none;fillColor=none;fontSize=17;" parent="1" vertex="1">
          <mxGeometry x="3671.3901002625553" y="615.995736484399" width="160" height="30" as="geometry" />
        </mxCell>
        <mxCell id="ziZAyYgAh9MztOyzgz17-136" value="False" style="text;html=1;align=center;verticalAlign=middle;resizable=0;points=[];autosize=1;strokeColor=none;fillColor=none;" parent="1" vertex="1">
          <mxGeometry x="3458.0499999999997" y="546" width="50" height="30" as="geometry" />
        </mxCell>
        <mxCell id="ziZAyYgAh9MztOyzgz17-140" style="edgeStyle=orthogonalEdgeStyle;rounded=0;orthogonalLoop=1;jettySize=auto;html=1;exitX=0.5;exitY=1;exitDx=0;exitDy=0;entryX=0.5;entryY=0;entryDx=0;entryDy=0;fontFamily=Helvetica;fontSize=15;fontColor=#000000;" parent="1" source="ziZAyYgAh9MztOyzgz17-137" target="ziZAyYgAh9MztOyzgz17-139" edge="1">
          <mxGeometry relative="1" as="geometry" />
        </mxCell>
        <mxCell id="ziZAyYgAh9MztOyzgz17-137" value="Send data to ThingsBoard" style="rounded=0;whiteSpace=wrap;html=1;" parent="1" vertex="1">
          <mxGeometry x="3377.03" y="760" width="162.06" height="36.77" as="geometry" />
        </mxCell>
        <mxCell id="ziZAyYgAh9MztOyzgz17-139" value="End" style="ellipse;whiteSpace=wrap;html=1;" parent="1" vertex="1">
          <mxGeometry x="3421.000906665185" y="830.0028078467717" width="74.10523563943899" height="36.77108433734939" as="geometry" />
        </mxCell>
        <mxCell id="ziZAyYgAh9MztOyzgz17-141" value="True" style="text;html=1;align=center;verticalAlign=middle;resizable=0;points=[];autosize=1;strokeColor=none;fillColor=none;" parent="1" vertex="1">
          <mxGeometry x="3458.0499999999997" y="653" width="50" height="30" as="geometry" />
        </mxCell>
        <mxCell id="5S2iBS3wVlSxtZ1-8zax-4" value="" style="edgeStyle=orthogonalEdgeStyle;rounded=0;orthogonalLoop=1;jettySize=auto;html=1;" parent="1" source="5S2iBS3wVlSxtZ1-8zax-1" edge="1">
          <mxGeometry relative="1" as="geometry">
            <mxPoint x="3458" y="760" as="targetPoint" />
          </mxGeometry>
        </mxCell>
        <mxCell id="5S2iBS3wVlSxtZ1-8zax-1" value="Open Door" style="rounded=0;whiteSpace=wrap;html=1;" parent="1" vertex="1">
          <mxGeometry x="3391.943350365059" y="689.9981303676243" width="132.2065236759944" height="36.77108433734939" as="geometry" />
        </mxCell>
        <mxCell id="5S2iBS3wVlSxtZ1-8zax-8" style="edgeStyle=orthogonalEdgeStyle;rounded=0;orthogonalLoop=1;jettySize=auto;html=1;entryX=1;entryY=0.5;entryDx=0;entryDy=0;" parent="1" source="5S2iBS3wVlSxtZ1-8zax-5" target="ziZAyYgAh9MztOyzgz17-57" edge="1">
          <mxGeometry relative="1" as="geometry" />
        </mxCell>
        <mxCell id="5S2iBS3wVlSxtZ1-8zax-5" value="&lt;font style=&quot;font-size: 13px;&quot;&gt;esp_camera.h&lt;/font&gt;" style="text;html=1;align=center;verticalAlign=middle;resizable=0;points=[];autosize=1;strokeColor=none;fillColor=none;fontSize=17;" parent="1" vertex="1">
          <mxGeometry x="4086.3900445611357" y="56.000864689527305" width="100" height="32" as="geometry" />
        </mxCell>
        <mxCell id="-PVYNfKp2_SMiAzgi10n-1" value="Begin" style="ellipse;whiteSpace=wrap;html=1;" parent="1" vertex="1">
          <mxGeometry x="137" y="163" width="80" height="40" as="geometry" />
        </mxCell>
        <mxCell id="-PVYNfKp2_SMiAzgi10n-2" value="GetDataFromESP()" style="rounded=0;whiteSpace=wrap;html=1;" parent="1" vertex="1">
          <mxGeometry x="107" y="233" width="140" height="40" as="geometry" />
        </mxCell>
        <mxCell id="-PVYNfKp2_SMiAzgi10n-7" style="edgeStyle=orthogonalEdgeStyle;rounded=0;orthogonalLoop=1;jettySize=auto;html=1;exitX=0.5;exitY=1;exitDx=0;exitDy=0;entryX=0.5;entryY=0;entryDx=0;entryDy=0;" parent="1" source="-PVYNfKp2_SMiAzgi10n-1" target="-PVYNfKp2_SMiAzgi10n-2" edge="1">
          <mxGeometry relative="1" as="geometry" />
        </mxCell>
        <mxCell id="-PVYNfKp2_SMiAzgi10n-3" value="GetDataFromCam()" style="rounded=0;whiteSpace=wrap;html=1;" parent="1" vertex="1">
          <mxGeometry x="107" y="290.87" width="140" height="40" as="geometry" />
        </mxCell>
        <mxCell id="-PVYNfKp2_SMiAzgi10n-8" style="edgeStyle=orthogonalEdgeStyle;rounded=0;orthogonalLoop=1;jettySize=auto;html=1;exitX=0.5;exitY=1;exitDx=0;exitDy=0;entryX=0.5;entryY=0;entryDx=0;entryDy=0;" parent="1" source="-PVYNfKp2_SMiAzgi10n-2" target="-PVYNfKp2_SMiAzgi10n-3" edge="1">
          <mxGeometry relative="1" as="geometry" />
        </mxCell>
        <mxCell id="-PVYNfKp2_SMiAzgi10n-4" value="ReadNumpad()" style="rounded=0;whiteSpace=wrap;html=1;" parent="1" vertex="1">
          <mxGeometry x="107" y="348" width="140" height="40" as="geometry" />
        </mxCell>
        <mxCell id="-PVYNfKp2_SMiAzgi10n-9" style="edgeStyle=orthogonalEdgeStyle;rounded=0;orthogonalLoop=1;jettySize=auto;html=1;exitX=0.5;exitY=1;exitDx=0;exitDy=0;entryX=0.5;entryY=0;entryDx=0;entryDy=0;" parent="1" source="-PVYNfKp2_SMiAzgi10n-3" target="-PVYNfKp2_SMiAzgi10n-4" edge="1">
          <mxGeometry relative="1" as="geometry" />
        </mxCell>
        <mxCell id="-PVYNfKp2_SMiAzgi10n-5" value="ReadButton()" style="rounded=0;whiteSpace=wrap;html=1;" parent="1" vertex="1">
          <mxGeometry x="107" y="406" width="140" height="40" as="geometry" />
        </mxCell>
        <mxCell id="-PVYNfKp2_SMiAzgi10n-10" style="edgeStyle=orthogonalEdgeStyle;rounded=0;orthogonalLoop=1;jettySize=auto;html=1;exitX=0.5;exitY=1;exitDx=0;exitDy=0;entryX=0.5;entryY=0;entryDx=0;entryDy=0;" parent="1" source="-PVYNfKp2_SMiAzgi10n-4" target="-PVYNfKp2_SMiAzgi10n-5" edge="1">
          <mxGeometry relative="1" as="geometry" />
        </mxCell>
        <mxCell id="-PVYNfKp2_SMiAzgi10n-6" value="ReadSensor()" style="rounded=0;whiteSpace=wrap;html=1;" parent="1" vertex="1">
          <mxGeometry x="107" y="463" width="140" height="40" as="geometry" />
        </mxCell>
        <mxCell id="-PVYNfKp2_SMiAzgi10n-11" style="edgeStyle=orthogonalEdgeStyle;rounded=0;orthogonalLoop=1;jettySize=auto;html=1;exitX=0.5;exitY=1;exitDx=0;exitDy=0;entryX=0.5;entryY=0;entryDx=0;entryDy=0;" parent="1" source="-PVYNfKp2_SMiAzgi10n-5" target="-PVYNfKp2_SMiAzgi10n-6" edge="1">
          <mxGeometry relative="1" as="geometry" />
        </mxCell>
        <mxCell id="zWhwJ_O7Vj7JY437uVaK-5" value="" style="endArrow=classic;html=1;rounded=0;exitX=1;exitY=0.5;exitDx=0;exitDy=0;" parent="1" source="-PVYNfKp2_SMiAzgi10n-6" edge="1">
          <mxGeometry width="50" height="50" relative="1" as="geometry">
            <mxPoint x="302" y="456" as="sourcePoint" />
            <mxPoint x="177" y="210" as="targetPoint" />
            <Array as="points">
              <mxPoint x="300" y="483" />
              <mxPoint x="300" y="210" />
            </Array>
          </mxGeometry>
        </mxCell>
        <mxCell id="WVB9dbx_asBBpIPRNUMO-1" value="&lt;p style=&quot;line-height: 19px;&quot;&gt;&lt;br&gt;&lt;/p&gt;" style="rounded=0;whiteSpace=wrap;html=1;fillColor=none;dashed=1;" vertex="1" parent="1">
          <mxGeometry x="3898.45" y="950" width="293.33" height="920" as="geometry" />
        </mxCell>
        <mxCell id="WVB9dbx_asBBpIPRNUMO-2" value="" style="rounded=0;whiteSpace=wrap;html=1;fillColor=none;dashed=1;" vertex="1" parent="1">
          <mxGeometry x="3311.78" y="950" width="293.33" height="920" as="geometry" />
        </mxCell>
        <mxCell id="WVB9dbx_asBBpIPRNUMO-3" value="&lt;span style=&quot;font-size: 13px;&quot;&gt;esp_camera_init()&lt;/span&gt;" style="text;html=1;align=center;verticalAlign=middle;resizable=0;points=[];autosize=1;strokeColor=none;fillColor=none;fontSize=17;" vertex="1" parent="1">
          <mxGeometry x="3980.110328638498" y="1030.0059036144578" width="130" height="30" as="geometry" />
        </mxCell>
        <mxCell id="WVB9dbx_asBBpIPRNUMO-4" style="edgeStyle=orthogonalEdgeStyle;rounded=0;orthogonalLoop=1;jettySize=auto;html=1;entryX=1;entryY=0.5;entryDx=0;entryDy=0;fontSize=13;" edge="1" parent="1" source="WVB9dbx_asBBpIPRNUMO-5" target="WVB9dbx_asBBpIPRNUMO-16">
          <mxGeometry relative="1" as="geometry">
            <Array as="points">
              <mxPoint x="4044.7799999999997" y="1139" />
            </Array>
          </mxGeometry>
        </mxCell>
        <mxCell id="WVB9dbx_asBBpIPRNUMO-5" value="Initialize camera" style="rounded=0;whiteSpace=wrap;html=1;" vertex="1" parent="1">
          <mxGeometry x="3979.01338028169" y="1060.0038554216867" width="132.20657276995303" height="37.59036144578313" as="geometry" />
        </mxCell>
        <mxCell id="WVB9dbx_asBBpIPRNUMO-6" value="" style="edgeStyle=orthogonalEdgeStyle;rounded=0;orthogonalLoop=1;jettySize=auto;html=1;fontSize=13;" edge="1" parent="1" source="WVB9dbx_asBBpIPRNUMO-7" target="WVB9dbx_asBBpIPRNUMO-5">
          <mxGeometry relative="1" as="geometry" />
        </mxCell>
        <mxCell id="WVB9dbx_asBBpIPRNUMO-7" value="Configure camera" style="rounded=0;whiteSpace=wrap;html=1;" vertex="1" parent="1">
          <mxGeometry x="3392.34338028169" y="1060.0038554216867" width="132.20657276995303" height="37.59036144578313" as="geometry" />
        </mxCell>
        <mxCell id="WVB9dbx_asBBpIPRNUMO-8" style="edgeStyle=orthogonalEdgeStyle;rounded=0;orthogonalLoop=1;jettySize=auto;html=1;entryX=0;entryY=0.5;entryDx=0;entryDy=0;fontSize=13;" edge="1" parent="1" source="WVB9dbx_asBBpIPRNUMO-9" target="WVB9dbx_asBBpIPRNUMO-7">
          <mxGeometry relative="1" as="geometry" />
        </mxCell>
        <mxCell id="WVB9dbx_asBBpIPRNUMO-9" value="&lt;font style=&quot;font-size: 13px;&quot;&gt;camera_pins.h&lt;/font&gt;" style="text;html=1;align=center;verticalAlign=middle;resizable=0;points=[];autosize=1;strokeColor=none;fillColor=none;fontSize=17;" vertex="1" parent="1">
          <mxGeometry x="3311.3903286384975" y="1022.9959036144578" width="110" height="30" as="geometry" />
        </mxCell>
        <mxCell id="WVB9dbx_asBBpIPRNUMO-10" value="" style="edgeStyle=orthogonalEdgeStyle;rounded=0;orthogonalLoop=1;jettySize=auto;html=1;fontSize=17;" edge="1" parent="1" source="WVB9dbx_asBBpIPRNUMO-33" target="WVB9dbx_asBBpIPRNUMO-7">
          <mxGeometry relative="1" as="geometry" />
        </mxCell>
        <mxCell id="WVB9dbx_asBBpIPRNUMO-11" value="&lt;font style=&quot;font-size: 15px;&quot;&gt;esp32-cam libraries&lt;/font&gt;" style="rounded=0;whiteSpace=wrap;html=1;fillColor=none;dashed=1;" vertex="1" parent="1">
          <mxGeometry x="3898.446448812225" y="950" width="293.3332244061126" height="36.77108433734939" as="geometry" />
        </mxCell>
        <mxCell id="WVB9dbx_asBBpIPRNUMO-12" value="" style="rounded=0;whiteSpace=wrap;html=1;fillColor=none;strokeWidth=1;dashed=1;" vertex="1" parent="1">
          <mxGeometry x="3605.11" y="950" width="293.33" height="920" as="geometry" />
        </mxCell>
        <mxCell id="WVB9dbx_asBBpIPRNUMO-13" value="&lt;font style=&quot;font-size: 15px;&quot;&gt;esp32_cam.ino&lt;/font&gt;" style="rounded=0;whiteSpace=wrap;html=1;fillColor=none;dashed=1;" vertex="1" parent="1">
          <mxGeometry x="3311.7799999999997" y="950" width="293.3332244061126" height="36.77108433734939" as="geometry" />
        </mxCell>
        <mxCell id="WVB9dbx_asBBpIPRNUMO-14" value="&lt;font style=&quot;font-size: 15px;&quot;&gt;app_httpd.cpp&lt;/font&gt;" style="rounded=0;whiteSpace=wrap;html=1;fillColor=none;dashed=1;" vertex="1" parent="1">
          <mxGeometry x="3605.1132244061127" y="950" width="293.3332244061126" height="36.77108433734939" as="geometry" />
        </mxCell>
        <mxCell id="WVB9dbx_asBBpIPRNUMO-15" value="" style="edgeStyle=orthogonalEdgeStyle;rounded=0;orthogonalLoop=1;jettySize=auto;html=1;fontSize=13;" edge="1" parent="1" source="WVB9dbx_asBBpIPRNUMO-16" target="WVB9dbx_asBBpIPRNUMO-18">
          <mxGeometry relative="1" as="geometry" />
        </mxCell>
        <mxCell id="WVB9dbx_asBBpIPRNUMO-16" value="Connect to Wifi" style="rounded=0;whiteSpace=wrap;html=1;" vertex="1" parent="1">
          <mxGeometry x="3392.343350365059" y="1119.9981303676243" width="132.2065236759944" height="36.77108433734939" as="geometry" />
        </mxCell>
        <mxCell id="WVB9dbx_asBBpIPRNUMO-17" style="edgeStyle=orthogonalEdgeStyle;rounded=0;orthogonalLoop=1;jettySize=auto;html=1;fontSize=13;" edge="1" parent="1" source="WVB9dbx_asBBpIPRNUMO-18" target="WVB9dbx_asBBpIPRNUMO-20">
          <mxGeometry relative="1" as="geometry" />
        </mxCell>
        <mxCell id="WVB9dbx_asBBpIPRNUMO-18" value="Connect to ThingsBoard&amp;nbsp;" style="rounded=0;whiteSpace=wrap;html=1;" vertex="1" parent="1">
          <mxGeometry x="3375.49" y="1191.62" width="165.92" height="36.77" as="geometry" />
        </mxCell>
        <mxCell id="WVB9dbx_asBBpIPRNUMO-19" style="edgeStyle=orthogonalEdgeStyle;rounded=0;orthogonalLoop=1;jettySize=auto;html=1;entryX=0;entryY=0.5;entryDx=0;entryDy=0;fontSize=13;" edge="1" parent="1" source="WVB9dbx_asBBpIPRNUMO-20" target="WVB9dbx_asBBpIPRNUMO-23">
          <mxGeometry relative="1" as="geometry" />
        </mxCell>
        <mxCell id="WVB9dbx_asBBpIPRNUMO-20" value="Start Camera Server" style="rounded=0;whiteSpace=wrap;html=1;" vertex="1" parent="1">
          <mxGeometry x="3679.8998633012893" y="1191.6166666666668" width="143.76994661204597" height="36.770730769230774" as="geometry" />
        </mxCell>
        <mxCell id="WVB9dbx_asBBpIPRNUMO-21" value="&lt;span style=&quot;font-size: 13px;&quot;&gt;startCameraServer()&lt;/span&gt;" style="text;html=1;align=center;verticalAlign=middle;resizable=0;points=[];autosize=1;strokeColor=none;fillColor=none;fontSize=17;" vertex="1" parent="1">
          <mxGeometry x="3681.7801912415407" y="1162.2665057151685" width="140" height="30" as="geometry" />
        </mxCell>
        <mxCell id="WVB9dbx_asBBpIPRNUMO-22" style="edgeStyle=orthogonalEdgeStyle;rounded=0;orthogonalLoop=1;jettySize=auto;html=1;entryX=1;entryY=0.5;entryDx=0;entryDy=0;fontFamily=Helvetica;fontSize=13;fontColor=#000000;" edge="1" parent="1" source="WVB9dbx_asBBpIPRNUMO-23" target="WVB9dbx_asBBpIPRNUMO-32">
          <mxGeometry relative="1" as="geometry">
            <Array as="points">
              <mxPoint x="4045" y="1332" />
            </Array>
          </mxGeometry>
        </mxCell>
        <mxCell id="WVB9dbx_asBBpIPRNUMO-23" value="Deploy Camera Server" style="rounded=0;whiteSpace=wrap;html=1;" vertex="1" parent="1">
          <mxGeometry x="3979.01313250938" y="1191.620438059932" width="132.2065236759944" height="36.77108433734939" as="geometry" />
        </mxCell>
        <mxCell id="WVB9dbx_asBBpIPRNUMO-24" value="&lt;span style=&quot;background-color: rgb(255, 255, 255);&quot;&gt;httpd_register_uri_handler()&lt;/span&gt;" style="text;html=1;align=center;verticalAlign=middle;resizable=0;points=[];autosize=1;strokeColor=none;fillColor=none;fontSize=13;fontFamily=Helvetica;fontColor=#000000;" vertex="1" parent="1">
          <mxGeometry x="3955.1097611040377" y="1162.2705128205127" width="180" height="30" as="geometry" />
        </mxCell>
        <mxCell id="WVB9dbx_asBBpIPRNUMO-25" style="edgeStyle=orthogonalEdgeStyle;rounded=0;orthogonalLoop=1;jettySize=auto;html=1;entryX=1;entryY=0.5;entryDx=0;entryDy=0;fontFamily=Helvetica;fontSize=13;fontColor=#000000;" edge="1" parent="1" source="WVB9dbx_asBBpIPRNUMO-26" target="WVB9dbx_asBBpIPRNUMO-23">
          <mxGeometry relative="1" as="geometry" />
        </mxCell>
        <mxCell id="WVB9dbx_asBBpIPRNUMO-26" value="&lt;font style=&quot;font-size: 13px;&quot;&gt;camera_index.h&lt;/font&gt;" style="text;html=1;align=center;verticalAlign=middle;resizable=0;points=[];autosize=1;strokeColor=none;fillColor=none;fontSize=17;" vertex="1" parent="1">
          <mxGeometry x="4076.7800445611356" y="1239.8708646895273" width="120" height="30" as="geometry" />
        </mxCell>
        <mxCell id="WVB9dbx_asBBpIPRNUMO-27" style="edgeStyle=orthogonalEdgeStyle;rounded=0;orthogonalLoop=1;jettySize=auto;html=1;entryX=0;entryY=0.5;entryDx=0;entryDy=0;fontFamily=Helvetica;fontSize=15;fontColor=#000000;" edge="1" parent="1" source="WVB9dbx_asBBpIPRNUMO-28" target="WVB9dbx_asBBpIPRNUMO-43">
          <mxGeometry relative="1" as="geometry">
            <Array as="points">
              <mxPoint x="3751.7799999999997" y="1496" />
            </Array>
          </mxGeometry>
        </mxCell>
        <mxCell id="WVB9dbx_asBBpIPRNUMO-28" value="Run face recognition" style="rounded=0;whiteSpace=wrap;html=1;" vertex="1" parent="1">
          <mxGeometry x="3679.8998633012893" y="1424.0005128205128" width="143.76994661204597" height="36.770730769230774" as="geometry" />
        </mxCell>
        <mxCell id="WVB9dbx_asBBpIPRNUMO-29" value="&lt;span style=&quot;font-size: 13px;&quot;&gt;run_face_recognition()&lt;/span&gt;" style="text;html=1;align=center;verticalAlign=middle;resizable=0;points=[];autosize=1;strokeColor=none;fillColor=none;fontSize=17;" vertex="1" parent="1">
          <mxGeometry x="3676.780100262555" y="1283.875736484399" width="150" height="30" as="geometry" />
        </mxCell>
        <mxCell id="WVB9dbx_asBBpIPRNUMO-30" value="&lt;span style=&quot;background-color: rgb(255, 255, 255);&quot;&gt;stream_handler()&lt;/span&gt;" style="text;html=1;align=center;verticalAlign=middle;resizable=0;points=[];autosize=1;strokeColor=none;fillColor=none;fontSize=13;fontFamily=Helvetica;fontColor=#000000;" vertex="1" parent="1">
          <mxGeometry x="3694.2798579613795" y="1240.5269230769231" width="120" height="30" as="geometry" />
        </mxCell>
        <mxCell id="WVB9dbx_asBBpIPRNUMO-31" style="edgeStyle=orthogonalEdgeStyle;rounded=0;orthogonalLoop=1;jettySize=auto;html=1;entryX=0;entryY=0.5;entryDx=0;entryDy=0;fontFamily=Helvetica;fontSize=15;fontColor=#000000;" edge="1" parent="1" source="WVB9dbx_asBBpIPRNUMO-32" target="WVB9dbx_asBBpIPRNUMO-37">
          <mxGeometry relative="1" as="geometry">
            <Array as="points">
              <mxPoint x="3751.7799999999997" y="1391" />
            </Array>
          </mxGeometry>
        </mxCell>
        <mxCell id="WVB9dbx_asBBpIPRNUMO-32" value="Stream video" style="rounded=0;whiteSpace=wrap;html=1;" vertex="1" parent="1">
          <mxGeometry x="3679.8998633012893" y="1313.873076923077" width="143.76994661204597" height="36.770730769230774" as="geometry" />
        </mxCell>
        <mxCell id="WVB9dbx_asBBpIPRNUMO-33" value="Begin" style="ellipse;whiteSpace=wrap;html=1;" vertex="1" parent="1">
          <mxGeometry x="3421.390906665185" y="1000.0028078467717" width="74.10523563943899" height="36.77108433734939" as="geometry" />
        </mxCell>
        <mxCell id="WVB9dbx_asBBpIPRNUMO-34" value="Draw face boxes" style="rounded=0;whiteSpace=wrap;html=1;" vertex="1" parent="1">
          <mxGeometry x="3679.8998633012893" y="1534.0005128205128" width="143.76994661204597" height="36.770730769230774" as="geometry" />
        </mxCell>
        <mxCell id="WVB9dbx_asBBpIPRNUMO-35" value="&lt;span style=&quot;font-size: 13px;&quot;&gt;draw_face_boxes()&lt;/span&gt;" style="text;html=1;align=center;verticalAlign=middle;resizable=0;points=[];autosize=1;strokeColor=none;fillColor=none;fontSize=17;" vertex="1" parent="1">
          <mxGeometry x="3686.780100262555" y="1397.395736484399" width="130" height="30" as="geometry" />
        </mxCell>
        <mxCell id="WVB9dbx_asBBpIPRNUMO-36" style="edgeStyle=orthogonalEdgeStyle;rounded=0;orthogonalLoop=1;jettySize=auto;html=1;entryX=1;entryY=0.5;entryDx=0;entryDy=0;fontFamily=Helvetica;fontSize=15;fontColor=#000000;" edge="1" parent="1" source="WVB9dbx_asBBpIPRNUMO-37" target="WVB9dbx_asBBpIPRNUMO-28">
          <mxGeometry relative="1" as="geometry">
            <Array as="points">
              <mxPoint x="4044.7799999999997" y="1442" />
            </Array>
          </mxGeometry>
        </mxCell>
        <mxCell id="WVB9dbx_asBBpIPRNUMO-37" value="Detect face" style="rounded=0;whiteSpace=wrap;html=1;" vertex="1" parent="1">
          <mxGeometry x="3979.0031325093796" y="1372.120438059932" width="132.2065236759944" height="36.77108433734939" as="geometry" />
        </mxCell>
        <mxCell id="WVB9dbx_asBBpIPRNUMO-38" value="&lt;span style=&quot;font-size: 13px;&quot;&gt;face_detect()&lt;/span&gt;" style="text;html=1;align=center;verticalAlign=middle;resizable=0;points=[];autosize=1;strokeColor=none;fillColor=none;fontSize=17;" vertex="1" parent="1">
          <mxGeometry x="3995.110100262555" y="1342.115736484399" width="100" height="30" as="geometry" />
        </mxCell>
        <mxCell id="WVB9dbx_asBBpIPRNUMO-39" style="edgeStyle=orthogonalEdgeStyle;rounded=0;orthogonalLoop=1;jettySize=auto;html=1;entryX=1;entryY=0.5;entryDx=0;entryDy=0;fontFamily=Helvetica;fontSize=15;fontColor=#000000;" edge="1" parent="1" source="WVB9dbx_asBBpIPRNUMO-40" target="WVB9dbx_asBBpIPRNUMO-37">
          <mxGeometry relative="1" as="geometry" />
        </mxCell>
        <mxCell id="WVB9dbx_asBBpIPRNUMO-40" value="&lt;font style=&quot;font-size: 13px;&quot;&gt;fd_forward.h&lt;/font&gt;" style="text;html=1;align=center;verticalAlign=middle;resizable=0;points=[];autosize=1;strokeColor=none;fillColor=none;fontSize=17;" vertex="1" parent="1">
          <mxGeometry x="4086.780044561136" y="1324.0008646895274" width="100" height="30" as="geometry" />
        </mxCell>
        <mxCell id="WVB9dbx_asBBpIPRNUMO-41" style="edgeStyle=orthogonalEdgeStyle;rounded=0;orthogonalLoop=1;jettySize=auto;html=1;entryX=1;entryY=0.5;entryDx=0;entryDy=0;fontFamily=Helvetica;fontSize=15;fontColor=#000000;" edge="1" parent="1" source="WVB9dbx_asBBpIPRNUMO-43" target="WVB9dbx_asBBpIPRNUMO-34">
          <mxGeometry relative="1" as="geometry">
            <Array as="points">
              <mxPoint x="4044.7799999999997" y="1552" />
            </Array>
          </mxGeometry>
        </mxCell>
        <mxCell id="WVB9dbx_asBBpIPRNUMO-42" style="edgeStyle=orthogonalEdgeStyle;rounded=0;orthogonalLoop=1;jettySize=auto;html=1;entryX=1;entryY=0.5;entryDx=0;entryDy=0;fontFamily=Helvetica;fontSize=15;fontColor=#000000;" edge="1" parent="1" source="WVB9dbx_asBBpIPRNUMO-43" target="WVB9dbx_asBBpIPRNUMO-49">
          <mxGeometry relative="1" as="geometry">
            <Array as="points">
              <mxPoint x="4044.7799999999997" y="1604" />
            </Array>
          </mxGeometry>
        </mxCell>
        <mxCell id="WVB9dbx_asBBpIPRNUMO-43" value="Recognize face" style="rounded=0;whiteSpace=wrap;html=1;" vertex="1" parent="1">
          <mxGeometry x="3979.01313250938" y="1477.220438059932" width="132.2065236759944" height="36.77108433734939" as="geometry" />
        </mxCell>
        <mxCell id="WVB9dbx_asBBpIPRNUMO-44" value="&lt;span style=&quot;font-size: 13px;&quot;&gt;recognize_face()&lt;/span&gt;" style="text;html=1;align=center;verticalAlign=middle;resizable=0;points=[];autosize=1;strokeColor=none;fillColor=none;fontSize=17;" vertex="1" parent="1">
          <mxGeometry x="3985.110100262555" y="1447.215736484399" width="120" height="30" as="geometry" />
        </mxCell>
        <mxCell id="WVB9dbx_asBBpIPRNUMO-45" style="edgeStyle=orthogonalEdgeStyle;rounded=0;orthogonalLoop=1;jettySize=auto;html=1;entryX=1;entryY=0.5;entryDx=0;entryDy=0;fontFamily=Helvetica;fontSize=15;fontColor=#000000;" edge="1" parent="1" source="WVB9dbx_asBBpIPRNUMO-46" target="WVB9dbx_asBBpIPRNUMO-43">
          <mxGeometry relative="1" as="geometry" />
        </mxCell>
        <mxCell id="WVB9dbx_asBBpIPRNUMO-46" value="&lt;font style=&quot;font-size: 13px;&quot;&gt;fr_forward.h&lt;/font&gt;" style="text;html=1;align=center;verticalAlign=middle;resizable=0;points=[];autosize=1;strokeColor=none;fillColor=none;fontSize=17;" vertex="1" parent="1">
          <mxGeometry x="4091.780044561136" y="1427.3908646895272" width="90" height="30" as="geometry" />
        </mxCell>
        <mxCell id="WVB9dbx_asBBpIPRNUMO-47" style="edgeStyle=orthogonalEdgeStyle;rounded=0;orthogonalLoop=1;jettySize=auto;html=1;entryX=0;entryY=0.5;entryDx=0;entryDy=0;fontFamily=Helvetica;fontSize=15;fontColor=#000000;" edge="1" parent="1" source="WVB9dbx_asBBpIPRNUMO-49" target="WVB9dbx_asBBpIPRNUMO-28">
          <mxGeometry relative="1" as="geometry">
            <Array as="points">
              <mxPoint x="3458.7799999999997" y="1442" />
            </Array>
          </mxGeometry>
        </mxCell>
        <mxCell id="WVB9dbx_asBBpIPRNUMO-48" value="" style="edgeStyle=orthogonalEdgeStyle;rounded=0;orthogonalLoop=1;jettySize=auto;html=1;" edge="1" parent="1" source="WVB9dbx_asBBpIPRNUMO-49" target="WVB9dbx_asBBpIPRNUMO-57">
          <mxGeometry relative="1" as="geometry" />
        </mxCell>
        <mxCell id="WVB9dbx_asBBpIPRNUMO-49" value="matchFace?" style="rhombus;whiteSpace=wrap;html=1;" vertex="1" parent="1">
          <mxGeometry x="3408.4399999999996" y="1564" width="100" height="80" as="geometry" />
        </mxCell>
        <mxCell id="WVB9dbx_asBBpIPRNUMO-50" value="&lt;span style=&quot;font-size: 13px;&quot;&gt;matched_id, matchFace&lt;/span&gt;" style="text;html=1;align=center;verticalAlign=middle;resizable=0;points=[];autosize=1;strokeColor=none;fillColor=none;fontSize=17;" vertex="1" parent="1">
          <mxGeometry x="3671.780100262555" y="1603.995736484399" width="160" height="30" as="geometry" />
        </mxCell>
        <mxCell id="WVB9dbx_asBBpIPRNUMO-51" value="False" style="text;html=1;align=center;verticalAlign=middle;resizable=0;points=[];autosize=1;strokeColor=none;fillColor=none;" vertex="1" parent="1">
          <mxGeometry x="3458.4399999999996" y="1534" width="50" height="30" as="geometry" />
        </mxCell>
        <mxCell id="WVB9dbx_asBBpIPRNUMO-52" style="edgeStyle=orthogonalEdgeStyle;rounded=0;orthogonalLoop=1;jettySize=auto;html=1;exitX=0.5;exitY=1;exitDx=0;exitDy=0;entryX=0.5;entryY=0;entryDx=0;entryDy=0;fontFamily=Helvetica;fontSize=15;fontColor=#000000;" edge="1" parent="1" source="WVB9dbx_asBBpIPRNUMO-53" target="WVB9dbx_asBBpIPRNUMO-54">
          <mxGeometry relative="1" as="geometry" />
        </mxCell>
        <mxCell id="WVB9dbx_asBBpIPRNUMO-53" value="Send data to ThingsBoard" style="rounded=0;whiteSpace=wrap;html=1;" vertex="1" parent="1">
          <mxGeometry x="3377.42" y="1748" width="162.06" height="36.77" as="geometry" />
        </mxCell>
        <mxCell id="WVB9dbx_asBBpIPRNUMO-54" value="End" style="ellipse;whiteSpace=wrap;html=1;" vertex="1" parent="1">
          <mxGeometry x="3421.390906665185" y="1818.0028078467717" width="74.10523563943899" height="36.77108433734939" as="geometry" />
        </mxCell>
        <mxCell id="WVB9dbx_asBBpIPRNUMO-55" value="True" style="text;html=1;align=center;verticalAlign=middle;resizable=0;points=[];autosize=1;strokeColor=none;fillColor=none;" vertex="1" parent="1">
          <mxGeometry x="3458.4399999999996" y="1641" width="50" height="30" as="geometry" />
        </mxCell>
        <mxCell id="WVB9dbx_asBBpIPRNUMO-56" value="" style="edgeStyle=orthogonalEdgeStyle;rounded=0;orthogonalLoop=1;jettySize=auto;html=1;" edge="1" parent="1" source="WVB9dbx_asBBpIPRNUMO-57">
          <mxGeometry relative="1" as="geometry">
            <mxPoint x="3458.39" y="1748" as="targetPoint" />
          </mxGeometry>
        </mxCell>
        <mxCell id="WVB9dbx_asBBpIPRNUMO-57" value="Open Door" style="rounded=0;whiteSpace=wrap;html=1;" vertex="1" parent="1">
          <mxGeometry x="3392.333350365059" y="1677.9981303676243" width="132.2065236759944" height="36.77108433734939" as="geometry" />
        </mxCell>
        <mxCell id="WVB9dbx_asBBpIPRNUMO-58" style="edgeStyle=orthogonalEdgeStyle;rounded=0;orthogonalLoop=1;jettySize=auto;html=1;entryX=1;entryY=0.5;entryDx=0;entryDy=0;" edge="1" parent="1" source="WVB9dbx_asBBpIPRNUMO-59" target="WVB9dbx_asBBpIPRNUMO-5">
          <mxGeometry relative="1" as="geometry" />
        </mxCell>
        <mxCell id="WVB9dbx_asBBpIPRNUMO-59" value="&lt;font style=&quot;font-size: 13px;&quot;&gt;esp_camera.h&lt;/font&gt;" style="text;html=1;align=center;verticalAlign=middle;resizable=0;points=[];autosize=1;strokeColor=none;fillColor=none;fontSize=17;" vertex="1" parent="1">
          <mxGeometry x="4086.780044561136" y="1000.0008646895274" width="100" height="32" as="geometry" />
        </mxCell>
        <mxCell id="WVB9dbx_asBBpIPRNUMO-62" value="" style="shape=card;whiteSpace=wrap;html=1;rounded=0;shadow=0;glass=0;sketch=1;fontSize=13;fillColor=#f8cecc;rotation=-180;strokeColor=#D79B00;" vertex="1" parent="1">
          <mxGeometry x="3330" y="1280" width="100" height="40" as="geometry" />
        </mxCell>
        <mxCell id="WVB9dbx_asBBpIPRNUMO-63" value="&lt;font color=&quot;#cc0000&quot; face=&quot;Comic Sans MS&quot; style=&quot;font-size: 15px;&quot;&gt;&lt;b&gt;loop&lt;/b&gt;&lt;/font&gt;" style="text;html=1;align=center;verticalAlign=middle;resizable=0;points=[];autosize=1;strokeColor=none;fillColor=none;fontSize=13;" vertex="1" parent="1">
          <mxGeometry x="3352" y="1285" width="46" height="31" as="geometry" />
        </mxCell>
      </root>
    </mxGraphModel>
  </diagram>
</mxfile>
